<?xml version="1.0" encoding="utf-8"?>
<!-- Generator: Adobe Illustrator 21.0.0, SVG Export Plug-In . SVG Version: 6.00 Build 0)  -->
<svg version="1.1" id="iconic" xmlns="http://www.w3.org/2000/svg" xmlns:xlink="http://www.w3.org/1999/xlink" x="0px" y="0px"
	 viewBox="0 0 841.9 595.3" style="enable-background:new 0 0 841.9 595.3;" xml:space="preserve">
<style type="text/css">
	.st0{fill:none;}
	.st1{fill:#000066;}
	.st2{fill:#FFFFFF;}
</style>
<g>
	<path class="st0" d="M658,40.1c-12.6,10.5-26.8,19-42,25.1c-29.1,11.8-61.6,15.1-92.4,9c-17.1-3.4-34-9.7-49.9-16.5
		c-8.1-3.5-16-7.5-23.4-12.2c-5.1-3.2-10-6.6-15.3-9.5c-10.4,12.4-23,22.9-37.1,30.9c-25.5,14.5-55.5,21.2-84.7,17.8
		c-33.5-3.9-63.7-20.1-92.9-36.1c0.1,0.2,0.1,0.4,0.1,0.6c0,1.4,0,2.8-0.1,4.2c0,0.7,0,1.4,0,2.2c-0.1,9.1-0.2,18.2-0.3,27.4
		c-0.5,43.1-1.5,86.1-1.4,129.2c0.1,39.7,1.5,79.6,9,118.6c7.3,38.1,20.6,74.9,42.7,107c21.2,30.7,49.1,56.2,79.6,77.4
		c15.1,10.5,30.9,20,47.1,28.7c9.6,5.1,19.5,9.6,30.3,11.2c11.3,1.7,22.9,0.6,34-1.8c20.4-4.4,40.6-12.7,59.3-21.7
		c4.6-2.2,9.1-4.7,13.3-7.6c3.6-2.5,6.7-5.5,10.5-7.8c7.5-4.6,14.8-9.6,21.8-15c28-21.7,51-49.7,67.2-81.2
		c18.2-35.3,25.5-73.3,27.4-112.7c2.1-44.8,0.6-89.8-0.3-134.7C659.6,128.4,658.8,84.3,658,40.1z M653.9,332.8
		c-5.8,60.5-35.3,118.4-80.9,158.6c-16.5,14.5-34.9,26.8-54.5,36.6c-17.1,8.5-35.2,15.2-53.7,20c-6.7,1.7-13.5,3.2-20.3,3
		c-7.3-0.2-14.5-2.4-21.4-4.7C323.9,512.1,246.9,420.5,230.3,317c-4.5-28.3-4.9-57-5.2-85.7c-0.7-57.9-1.4-115.7-2-173.6l3.2,2.4
		c6.1,7.9,15.1,12.9,24.2,17c36.1,16.2,77.9,20.1,115.9,9c23.5-6.8,45.3-19.2,63.2-35.9c1.6-1.5,3.2-3.1,5.3-3.7
		c3.8-1.3,7.9,0.8,11.5,2.8c41.9,23.6,89.8,44.3,136.7,34c25.6-5.6,48.2-19.9,70.3-34c0.6,77.7,1.3,155.4,1.9,233.1
		C655.4,299.2,655.5,316.1,653.9,332.8z"/>
	<path class="st0" d="M666.2,57.5c-0.2-7.8-0.6-15.5-1.1-23.3c-0.3-3.9-0.5-7.9-0.9-11.8c-0.1-0.6-0.4-1.9-0.7-3.3
		c-0.1,0.1-0.1,0.2-0.2,0.3c-1.8,3-4.1,5.7-6.5,8.2c-6.9,7.3-15.3,13.4-23.9,18.7c-19.8,12.3-41.3,19.8-64.6,21.3
		c-26.5,1.7-52.5-3.7-77.5-12.1c-20.6-6.9-42-16.1-56.7-32.6c-4.2,4.4-8.7,8.2-13.3,12.1c-7.6,6.6-15.2,12.9-23.8,18.4
		c-15.2,9.7-31.1,17.2-49,20.4c-17,3-34.5,2.6-51.4-0.7c-33.8-6.7-64.1-25-89.8-47.6c1.1,13.2,2.1,26.5,2.8,39.7
		c1.7,29.6,2.6,59.2,2.7,88.8c0.1,30.5-1.4,61-0.8,91.5c1,53.2,8.4,108.2,28.9,157.6c9.6,23,22.4,44.9,39.2,63.4
		c18.8,20.8,42.5,37.1,64.5,54.2c22.2,17.3,43.8,35.1,72.2,40.9c28.4,5.8,55.6-1.3,81.5-12.8c24.6-10.9,50.8-22.3,71.7-39.7
		c10.7-8.9,20.3-19.3,29.9-29.3c9.7-10.1,19.1-20.6,27.2-32c29.4-41.4,39.3-92.4,42.2-142.3c3.1-54.3,0.1-109-0.9-163.3
		C667.3,114.2,667,85.8,666.2,57.5z M659.8,348c-5.6,35.9-19.4,70.3-40,100.2c-10,14.6-21.5,28.1-34.4,40.2
		c-12.9,12.1-27,21.7-41.6,31.4c-4.2,2.8-7.8,6.3-12.1,9c-4.4,2.7-9,5-13.6,7.1c-8.8,4-17.9,7.7-26.9,11.2
		c-19.5,7.5-40.6,13.6-61.8,11.2c-19.7-2.2-37.2-13.2-54-23.1c-15.9-9.4-31.2-19.8-45.7-31.1c-29.6-23.2-55.8-51.1-74.2-84.1
		c-19.2-34.3-29.5-72.6-34.7-111.4c-5.4-40-5.6-80.4-5.3-120.6c0.4-45.5,1.1-91.1,1.7-136.6c-0.2-1.9-0.4-3.8-0.1-5.7
		c0.1-1,1.5-1.3,2.2-0.9c17,9.4,34.2,18.8,52.3,26c28.9,11.4,59.5,15.4,89.9,7.6c28-7.2,53.5-23,72-45.3c0.4-0.5,1.3-0.5,1.8-0.2
		c6.1,3.2,11.7,7.2,17.6,10.8c8.6,5.3,17.7,9.7,27,13.4c15.3,6.1,31.2,11.9,47.5,14.8c15,2.7,30.5,3,45.7,1.3
		c31.4-3.7,61.5-16.5,85.3-37.3c1-0.8,2.5-0.3,2.6,1.1c0.2,11.5,0.4,23.1,0.6,34.6c0.9,46.5,1.7,93,2.6,139.5
		C664.9,256.5,666.8,303,659.8,348z"/>
	<path class="st0" d="M476.1,93.6h-73.8v73.8h73.8V93.6z M414.5,117.9c-0.4,0.1-0.7,0-1-0.2c0,3.4,0,6.8,0,10.3c0,1.9-3,1.9-3,0
		c0-8.3,0-16.7,0-25c0-0.9,0.7-1.4,1.4-1.4c0.1-0.2,0.3-0.4,0.6-0.5c5.7-3,15.4-1.6,15.4,6.6C427.8,114.4,419.9,116.9,414.5,117.9z
		 M446.6,155.6c-1.4,8.7-13.9,9.8-15.6,0.8c-0.3-1.9,2.5-2.7,2.9-0.8c1,5.2,7.8,5.6,9.5,0.5c0.9-2.9-0.9-6.3-3.4-7.8
		c-2.5-1.4-5.4-1.3-7.5-3.5c-2.3-2.6-2.7-6.8-1.1-9.8c4.4-8.7,16.3-1.9,14.7,6.4c-0.3,1.9-3.2,1.1-2.9-0.8c1.6-8.5-11.9-8-9.6,0
		c1.1,3.7,5.1,3.6,7.9,5.2C444.9,147.6,447.2,151.6,446.6,155.6z M469.8,120.8c-5.1,7-15.5,8.9-22.6,3.9c-8-5.6-9.8-16.9-2.8-24.1
		c6.5-6.7,17.3-5.1,22.9,1.8c1.2,1.5-0.9,3.6-2.1,2.1c-4.3-5.4-12.3-7.3-17.8-2.6c-6,5.1-5.5,13.8,0.1,19c5.2,4.8,13.3,4.5,18.4-0.3
		c1.3-1.2,2.4-2.3,2-4.2c-0.1-0.5-0.2-0.9-0.4-1.2c0.1-0.4,0.2-0.8,0.1-1.2c0,0,0-0.1,0-0.1c0-0.7-0.2-1.4-0.6-2
		c0.5,0,1.1,0,1.6,0.1c0.5,0.2,0.9,0.4,1.3,0.6C473.2,114.7,471.6,118.3,469.8,120.8z"/>
	<g>
		<path class="st1" d="M426.3,414.6c5.1,0.2,10.1,1.1,15.2,2.5c1.4,0.4,1.5,2.6,0,2.9c-0.7,0.1-1.7,0.3-2.9,0.3
			c0.9,0.5,1.8,1.1,2.7,1.6c2.7-1,6.5-3.5,0.5-6.1c-1.5-0.7-3.6,0.2-5.2-0.4c-1.3-0.5-1.4-1.3-2.4-2.1c-1.3-1.2-2.8-1.6-4.2-2.4
			c-1.5-0.8-1.6-1.5-3.6-0.1c0,0-0.1,0-0.1,0.1V414.6z"/>
	</g>
	<g>
		<path class="st1" d="M420.1,408.2c-2.9,0.2-6,0.5-9,0.8c0.6,1.1,1.3,2.1,2,3.2c0.6,0.9,1.2,1.5,1.8,2c0.3,0,0.5-0.1,0.8-0.1
			c0.9-0.4,1.8,0.1,2.1,0.8c1-0.1,1.9-0.1,2.8-0.2c-0.2-0.8-0.2-1.7,0-2.7c0.3-1.1,1.3-2.2,2.5-3.1v-2.3h-1.7
			C421.6,407.3,421.1,408.1,420.1,408.2z"/>
	</g>
	<g>
		<path class="st1" d="M296.5,128c-0.1-0.1-0.2,0.2-0.3,0.7c0.2-0.2,0.4-0.3,0.6-0.5L296.5,128z"/>
	</g>
	<g>
		<path class="st1" d="M413.2,417.1c-1.9-1.8-3.3-4.2-4.6-6.5c-1,0.2-2-0.3-2.5-1.3c-2.8,0.1-5.6,0.1-8.4-0.2
			c-5.6-0.6-10.9-0.9-16.3-0.9c0.3,0.9-0.3,2.1-1.4,2.1c-2,0-4.1,0-6.1,0c-0.7,0.1-1.4,0.1-2.4,0c0,0,0,0,0,0
			c-0.2,0.6-0.4,1.3-0.6,1.9c0.9,1.6-1.3,3-2.4,1.8v22.6c0.1,0,0.3,0,0.4,0c0.2,0,0.2,0,0.1,0c0.1,0,0.2,0,0.3,0
			c0,0,0.4-0.1,0.3-0.1c0.7-0.3,1.6-0.2,2.1,0.5c0.3,0.5,0.2,1.2-0.1,1.7h1.7c-0.8-0.7-0.7-2.2,0.6-2.5c4.6-1.1,9.1-0.9,13.7-0.6
			c5.3-0.4,10.7-0.4,16-0.4c6.8-0.6,16.3-1.5,16.3-1.6c0.6-1.8,3.2-1.1,2.9,0.7c0.2,0,0.4,0,0.6-0.1c0,0,0,0,0,0v-9.7
			C419.5,422.6,415.5,420.9,413.2,417.1z M384,429.9c-4,0-7.2-3.2-7.2-7.2s3.2-7.2,7.2-7.2c4,0,7.2,3.2,7.2,7.2S388,429.9,384,429.9
			z"/>
	</g>
	<g>
		<path class="st1" d="M338.5,154c-0.6-0.7-1.1-1.5-1.5-2.3l-10.8-6.3c-1.3,1.5-2.9,2.8-4.7,3.4l22.2,12.2c0-0.1,0-0.2,0-0.2
			C343.6,157.4,340.4,156.2,338.5,154z"/>
	</g>
	<g>
		<path class="st1" d="M429,419.7c1.6,1.2,3.4,2.1,5.4,2.6c0.9,0.2,1.8,0.3,2.7,0.4c-1.9-1.1-3.8-2-5.7-2.6
			C430.6,420,429.8,419.9,429,419.7z"/>
	</g>
	<g>
		<path class="st1" d="M421.1,417.6c0.2,0.8-0.4,1.7-1.2,1.8c1.1,0.6,2.2,1.2,3.3,1.7v-3.5c-0.1,0-0.1-0.1-0.2-0.1
			C422.4,417.6,421.8,417.6,421.1,417.6z"/>
	</g>
	<g>
		<path class="st1" d="M522.4,408.1c-1.7,0.4-3.5,0.8-5.2,1.2c-1.4,0.3-2.2-1.3-1.7-2.2h-51.8l7.8,29l34.4-0.2
			c-0.3-0.8-0.1-1.8,0.9-2.1c3-0.8,5.7-0.9,8.6-0.4c0.1-0.1,0.3-0.1,0.4-0.1c-0.9-0.6-0.9-2.3,0.4-2.7c0.6-0.2,1.1-0.3,1.6-0.3
			c0.3,0,0.5-0.1,0.8-0.1c0,0,0-0.1,0-0.1c0.2-0.5,0.4-0.9,0.6-1.3c-0.5-0.9-0.7-2-0.2-3.1c0.3-0.6,0.7-0.9,1.1-1.2
			c0-0.8,0-1.6-0.1-2.3c-0.1-1.2,1-1.6,1.9-1.4c0.1-0.7,0.2-1.3,0.3-1.7c0.7-3.3,1.5-6.6,2.4-9.9c-0.2-0.1-0.3-0.2-0.5-0.3
			C523.5,409.2,522.7,408.8,522.4,408.1z M510.3,427.7c-4,0-7.2-3.2-7.2-7.2s3.2-7.2,7.2-7.2s7.2,3.2,7.2,7.2
			S514.3,427.7,510.3,427.7z"/>
	</g>
	<g>
		<path class="st1" d="M653.3,49.4c-22.1,14.1-44.7,28.4-70.3,34c-46.9,10.3-94.8-10.5-136.7-34c-3.5-2-7.6-4.1-11.5-2.8
			c-2.1,0.7-3.7,2.3-5.3,3.7c-17.9,16.7-39.7,29-63.2,35.9c-38,11-79.8,7.1-115.9-9c-9.1-4.1-18.1-9.1-24.2-17l-3.2-2.4
			c0.7,57.9,1.4,115.7,2,173.6c0.3,28.6,0.7,57.4,5.2,85.7c16.6,103.5,93.6,195.1,192.8,229.3c6.9,2.4,14.1,4.5,21.4,4.7
			c6.9,0.2,13.7-1.3,20.3-3c18.5-4.8,36.6-11.5,53.7-20c19.6-9.8,38.1-22.1,54.5-36.6c45.5-40.2,75.1-98.1,80.9-158.6
			c1.6-16.7,1.5-33.5,1.3-50.3C654.6,204.8,654,127.1,653.3,49.4z M414.1,472.6c-1.2-0.6-2-1.9-2.4-3.3c-1.1-4.1,1.9-8.7,6-9.7
			c4.1-1,8.7,1.7,10,5.7l2.2,0.2c1.9-0.3,2,3.1,0.3,4c-1.7,0.9-3.8,0.3-5.7,0.6C421,470.7,417.4,474.3,414.1,472.6z M456.5,531.3
			c-2.6,0.2-5.2-0.9-7.8-1.6c-3.9-1.1-8-1.2-12-0.4c-3.7,0.8-7.4,2.3-11.1,2c-3.8-0.3-7.7-3.6-6.9-7.3c15.1,0,30.2,0,45.2,0
			l-2.6,2.2C461.9,528.7,459.1,531,456.5,531.3z M450.1,469.1c1.5-0.2,3.1-0.3,4.5,0.3c1.4,0.6,2.5,2.1,2.1,3.6
			c-0.5,1.8-2.8,2.2-4.7,2.2c-4.2,0.1-8.4-0.1-12.5-0.7c1.3-2.1,2.7-4.2,4.8-5.3c2.2-1.1,5.3-0.6,6.2,1.7L450.1,469.1z M458.9,493
			l0.7,0.9c-3.1,2.5-7.1,4.4-11,3.6s-7.1-5.1-5.6-8.8c1.3-3.2,5.6-4.4,8.9-3.1C455.2,486.8,457.5,489.8,458.9,493z M470.1,475.5
			c-2,1.5-5.3,1.9-6.7-0.1c-0.7-1.1-0.6-2.4-0.5-3.7c0.6-4.8,2.5-9.4,5.4-13.2l0.6-0.9c3.7-0.7,7.8-1.2,11.2,0.7
			c3.3,1.8,5.1,6.9,2.4,9.5c-1.8,1.7-4.5,1.8-6.7,2.9C473.6,471.8,472.1,474,470.1,475.5z M483.9,517.6c-2.3-0.3-3.7-2.5-4.7-4.5
			c-1.3-2.8-2-6.6,0.4-8.5c2.4-1.9,6.1-0.2,7.5,2.5s1,5.9,0.7,8.9l-0.6-1.3C487.2,516.1,485.6,517.9,483.9,517.6z M516.3,517.9
			c-3,0.9-6.3,1.6-8.2,4.1c-1,1.4-1.5,3.1-2.4,4.5c-1.8,2.7-5.3,4-8.6,3.9c-3.3-0.1-6.4-1.3-9.4-2.6c3-0.2,5.9-1.4,8.2-3.2
			c2-1.6,3.6-3.7,5.5-5.5c4.7-4.5,11.1-7.2,17.6-7.3l3.7,0.1C522.4,515.1,519.2,517,516.3,517.9z M643.7,269.5
			c-1.4,42.2-4.2,85-18.4,124.7c-14.2,39.7-41.4,76.5-80,93.5c-8.3,3.6-17.2,6.3-26.2,5.7s-18.1-5.3-22.3-13.3
			c-2.2-4.2-3.2-9.2-4.2-14.1c-0.1,0.3-0.2,0.5-0.4,0.6c0.3,2.3,0.7,4.6,1.1,6.9c0.4,1.9-2.5,2.7-2.9,0.8c-0.5-2.2-0.8-4.5-1.1-6.7
			c-0.2-0.1-0.5-0.2-0.7-0.4c-0.6-0.6-0.6-1.5,0-2.1c0.1-0.1,0.2-0.2,0.3-0.3c-0.1-0.5-0.1-1.1-0.2-1.6c-0.1-0.7,0.3-1.1,0.8-1.3
			c-0.1-1.7-0.1-3.3-0.2-5c-0.5-0.1-0.9-0.4-1.1-1c-0.1-0.4-0.2-0.9-0.3-1.3c-0.2,0-0.4,0-0.6,0c-3.4-0.8-6.7-3.5-10.1-4.4
			c-0.4,0.7-1.2,1.2-2,0.6c-0.6-0.5-1.3-0.7-2-0.8c-1.4-0.3-1.4-2.4-0.1-2.8c0.1-0.5,0.4-1,0.9-1.2c-2.2-1.2-3.9-3.8-3.2-6l-2.2,0
			l-10-37h2.7c-0.8-1.3-1.1-3.1-1.5-4.7c-0.6-2.1-2.4-4.5-4.5-3.8c2.4-10.8,7.4-21,14.3-29.7c0.9-1.1,1.8-2.2,3.1-2.9
			c3.3-1.9,7.3-0.6,11.1-0.7c2.2-1.3,5.4-0.7,7,1.3c1.7,2.1,1.5,5.6-0.6,7.5c-3.1,2.8-8.7,1.8-11.1,5.2c-0.8,1.2-1,2.7-1,4.2
			c-0.1,4.7,1.1,9.4,3.5,13.4c1.4,2.4,3.3,5.1,2.4,7.8c-0.4,1.1-1.3,1.9-2.3,2.5h16.2c-2-0.7-3.8-1.9-5-3.9c9.5-4,19.1-8,28.6-12
			c5.3-2.2,11.1-4.9,13.1-10.3c3.1-8.1-4.1-16.2-10.7-21.9c-4.6,5-10.8,8.5-17.5,9.8c-1.8-5.8,2.4-12.2,7.9-14.9s11.9-2.7,18-2.6
			c2.1,0,4.5,0.1,6,1.6c2.8,2.7,0.9,7.3,0.6,11.3c-0.5,8,7.9,14.6,15.8,14s14.6-6.9,17.8-14.2c2.8-6.5,4.4-15.1,11.2-17.2
			c3.8,2.8,2.3,8.6,1.3,13.2s0.5,11.2,5.2,10.9c11.8-11.1,24.2-23.5,27.2-39.4c2.1-11-4-25.4-15.2-25c-3.8,0.2-7.3,2-10.6,3.9
			c-12,6.6-23.9,13.3-35.9,19.9c-6.4-1.9-6.5-11.9-1.8-16.6c4.7-4.8,11.8-6,18.3-7.8s13.4-5.4,15-11.9c-4.4-4-7.2-9.6-7.9-15.4
			c-2.3,3.4-6.6,5.2-10.7,4.6c1-4.2,2-8.4,3.1-12.5c-6.9-1.5-13.9,4.8-14.2,11.6c0,0,0.1,0,0.1,0c0.2,0.1,0.5,0.2,0.7,0.3
			c0.3,0.3,0.6,0.5,1,0.8c1.4,1.1-0.3,2.9-1.7,2.4c-0.2,0-0.3,0-0.5-0.1l-0.1,1.2c0,0.3-0.2,0.6-0.3,0.8c0.1,0.1,0.2,0.2,0.3,0.4
			c0.5,0.6,0.6,1.5,0,2.1c-0.5,0.5-1.6,0.6-2.1,0c-0.3-0.3-0.5-0.6-0.8-0.9c-1.1,1.3-2.8,2-4.5,1.6c-2.7-0.7-3.8-4-2.6-6.4
			c0.8-1.7,3.4-0.2,2.6,1.5c-0.3,0.7,0.1,1.7,0.9,2c0.1,0,0.3,0.1,0.4,0c-1-0.7-0.7-2.7,0.8-2.7c-0.4-0.7-0.8-1.3-1.2-2
			c-0.1-0.1-0.3-0.1-0.4-0.2c-2.2-1.1-4-3.1-6.4-4.2c-0.8-0.3-0.9-1.1-0.6-1.8c-0.8-0.5-1.6-0.9-2.5-1.4c-0.9-0.5-1.8-1-2.6-1.5
			c-0.4-0.2-0.8-0.5-1.3-0.7c-0.4,0.1-0.9,0.1-1.3,0c-2.3-1-4-2.3-5.5-4.2c-0.6,0-1.2-0.1-1.7-0.2c-0.5,0.5-1.4,0.7-2.1,0.1
			c-0.9-0.7-1.5-1.5-2.1-2.3c-0.8-0.7-1.5-1.6-2.1-2.6l0,0c-2.9,0.6-6-1-7.1-3.8c-0.6,0.3-1.2,0.7-1.9,1c-1,0.5-2.2-0.1-2.3-1.3
			c0-0.2,0-0.3,0-0.5c-0.3,0-0.6-0.1-0.9-0.2c-0.6-0.3-0.8-1-1-1.8c-0.6,0.1-1.3,0.1-2,0.3c-1.1,0.2-2.1-0.7-1.9-1.7
			c-0.6-0.1-1.2-0.4-1.9-0.7c-0.5-0.3-0.7-0.8-0.7-1.2c-0.2-0.1-0.3-0.2-0.5-0.3c-0.4-0.4-0.5-0.9-0.4-1.4c-2.2,1.3-4.7,2.3-7.1,3.2
			c-1.1,0.4-2.2,0.8-3.4,0.7c-1.7-0.2-3-1.5-3.8-3c-1.5-2.9-1.1-6.3,0.6-9.2l-0.1-0.1c-0.4,0.4-1.1,0.6-1.7,0.3
			c-1.3-0.6-2.6-1.3-3.9-1.9c-0.4-0.2-0.7-0.5-0.7-0.9c-0.3-0.1-0.5-0.2-0.8-0.3c-0.8,0.3-1.9,0-2.1-0.9c-3-1.5-5.7-3.5-8.1-6.1
			l-4.2-2.3c0,0.7,0,1.4,0,2.1c0,2.9,0.9,6.1,3.5,7.4c2.8,1.3,6.8,0,8.8,2.3c1.8,2.1,0.3,5.5-1.9,7.2c-2.2,1.7-5.1,2.4-7.2,4.2
			c-2.2,1.9-3.4,4.7-5.6,6.4c-3,2.3-7.5,2.3-10.4-0.1c-3.1-2.6-3.9-7.1-3.3-11.1c0.6-4,2.3-7.8,3.4-11.7c1.2-4.1,1.6-8.4,1.9-12.7
			l-23.4-12.8c0.5,8.7,0.6,17.5,0.5,26.2c0,2.5-0.1,5-1.3,7.2c-1.8,3.2-5.8,4.5-9.4,4.3s-7-1.8-10.3-3.3c-4.1-1.9-8.8-4.9-8.3-9.4
			c0.8-8,15.4-5.9,18.5-13.3c2.1-5-2.6-10-6.7-13.4c-6.1-4.9-14.6-9.9-21-5.5c-1.7,1.2-3.2,3.1-5.2,3.4c-2,0.3-3.9-0.8-5.6-1.9
			c-4.7-3.1-9.5-6.2-13.3-10.4c-1.5-1.6-2.9-3.4-4.8-4.5c-3.4-2-7.7-1.5-11.7-1.2c-8.8,0.8-17.7,0.5-26.4-0.7
			c-0.5-0.1-1-0.2-1.4-0.5c-0.1,0-0.1-0.1-0.1-0.1c-0.8,0.7-2.3,0.6-2.4-0.6c0-0.1,0-0.3,0-0.4c0,0,0,0,0,0c0,0,0,0,0,0
			c0-0.4,0-0.7,0.2-1.1c0.5-1.4,1.7-2.3,2.8-3.3c0.7-0.7,1.5-1,2.5-1c1.5-0.1,2.8-0.2,4.2-0.9c1.7-0.8,3.3,1.8,1.5,2.6
			c-0.7,0.3-1.3,0.6-2,0.8c0,0.3-0.1,0.7-0.3,1c7.7-2.5,15.7-4.1,23.7-5.6c5.4-1,11.2-2,16.2,0.4c4.9,2.4,7.7,7.6,11.4,11.7
			c3.7,4.1,9.9,7.2,14.5,4.2c0.9-0.6,1.7-1.4,2.5-2.1l-39-21.3c-1.3-0.2-2.7-0.8-3.4-1.9l-13.6-7.4c0,2.6-1.8,4.9-4.4,5.7
			c-5,1.5-9.4-1.3-13.3-4c-4.7-3.2-10-7.8-8.7-13.4c1.5,0.2,2.9,0.1,4.2-0.4L292.5,133c0,0,0,0,0,0c-8-1-29.9-9.2-35-5.5
			c-6,4.4-3.2,15.5,3.7,17.3c0.4,0,0.9,0.1,1.3,0.2c-0.4,0-0.9-0.1-1.3-0.2c-5.5-0.6-11.3,2.9-13.1,8.2c-1.9,5.7,1.1,12.6,6.6,15.1
			c2.4,1.1,5.2,1.5,6.9,3.6c3,3.9-0.8,9.1-2.9,13.6c-3.7,8-0.6,18.5,6.9,23.1c2.6-9.4,18.8-5.8,24.6-13.7c2.2-3,2.3-6.9,3.9-10.3
			c1.5-3.3,6.1-6,8.8-3.5c1.1,5.3,4.7,10.1,9.6,12.5c-3.5,3.1-5.1,8.1-4.1,12.6c4.2-2.5,9.3-3.5,14.2-2.8c2.5,1.4,2.6,5.3,0.9,7.7
			c-1.7,2.3-4.6,3.4-7.4,4.3c-11.9,3.8-25,5.7-36.9,1.9c-5-1.6-9.9-4.2-15.2-4.1c-5.3,0.1-11.1,4.3-10.2,9.5
			c8.5,8.7,12.5,21.6,10.5,33.7c4.1-1,6.9,4.4,6.4,8.5c-0.5,4.1-2.7,8.2-1.8,12.3c1.8,8.9,14.4,9.1,23.3,7.2
			c1.9-12.4,12.5-22.9,24.8-24.7c8.2-1.2,16.7,1.1,24.7-1c-12.8,18.8-1.8,48.7,20,54.8c-4.5-6.4-0.4-16.8,7.2-18.4
			c2.8-0.6,5.8-0.1,8.6-0.7c11.6-2.2,14.6-19,25.6-23.2c8.4-3.3,18.1,2.5,22.3,10.5c4.1,8,4,17.4,3.6,26.4
			c-0.3,5.3-0.7,10.9-3.9,15.2c-3.1,4.3-9.9,6.4-13.9,2.8c-5.8-5.2-0.3-15.2-3.2-22.4c-2.4-6-10.2-8.2-16.5-6.5
			c-6.2,1.7-11.2,6.3-16,10.7c-1,0.9-2,2-2.2,3.3c-0.1,1.3,0.7,2.5,1.4,3.5c4,5.8,8.1,11.6,12.1,17.3c2.4-2.8,6.3-4.1,9.9-3.4
			c5,3.6,0.5,12.5-5.5,13c-6.1,0.5-11.4-4-15.3-8.7c-3.9-4.7-7.7-10.1-13.4-12.2c-6-2.2-13-0.5-18.7-3.3c-5.7-2.8-8.5-9.2-10.9-15.1
			c-2.3-5.7-4.6-11.4-6.8-17.2c-1.7-4.4-4-9.3-8.5-10.7c-6.7-2.1-12.7,4.6-15.9,10.8c9.1,3.6,7.1,17,3.4,26.1
			c-4.4,2.6-7.8-4.4-11.7-7.7c-7.4-6.3-18.5,1.8-23.3,10.3c-2.3,4.1-4.3,8.6-4.1,13.3c0.2,6.4,4.2,12,8,17.1c4,5.4,8,10.7,11.9,16.1
			c4.6,6.2,9.3,12.7,11.4,20.1c3.1-9.1,6.2-18.2,9.4-27.2c-1.3,10.9,11,17.9,21.2,21.7c5.7-4.2,13.3-5.7,20.2-4.2
			c-3.2,4.9-2,12.1,2.5,15.8c-0.4-4,4.2-7,8.2-7.1c4.1-0.1,8.1,1.4,12.1,1.3c3-0.1,6.1-1.1,9-0.2c2.9,0.8,5,4.9,2.7,6.8
			c2.8-2.4,6.8,1.3,8.2,4.8s3.5,7.9,7.2,7.3c1.2-0.2,2.2-0.9,3.1-1.7c12.5-10.7,12.1-32.9-0.6-43.3c8.4-3.1,17.3-4.9,26.2-5.3
			c-2.6,15.2-2.4,31,0.6,46.1c0.6,2.7,1.1,5.9-0.6,8.1c-0.1,0.1-0.1,0.1-0.2,0.2v3.4c0.9-0.4,1.7-0.6,2.4-0.7
			c1.3-0.1,1.3,0.2,2.4,0.8c1.5,0.9,3.2,2,4.6,3.1c0.7,0.6,0.9,1.4,1.8,1.9c1.1,0.6,2,0.3,3.3,0.5c1.7,0.2,3.4,0.5,4.7,1.6
			c2.4,1.9,2.7,5.2,1,7.6c-0.6,0.9-1.3,1.6-2.1,2.1c4.2,3,8.4,6.9,13.2,8.4c-0.7-1-1.5-2-2.1-3c-1.1-1.6,1.5-3.1,2.6-1.5
			c1.3,2,2.7,3.8,4.2,5.6c0.8,0.9,0.3,2.6-1.1,2.6c-5.5-0.2-9.5-3.1-13.8-6.3c-1.6-1.2-3.6-2.8-5.8-4.4c-4.9,1.4-11.2-1-15.3-4.2
			v1.4c0.4,0.2,0.9,0.5,1.3,0.7c1.5,1,0.3,3.3-1.3,2.7v15.6h-2.2c0.8,2.6,1.3,5.4,1.2,8.2c0.7,0,1.4,0.1,2.1,0.1c1.9,0.1,1.9,3,0,3
			c-3.1,0-6.1,0-9.2,0c-0.2,0-0.4,0-0.5-0.1c-0.2,0.1-0.4,0.2-0.7,0.2c-1.2,0-2.4-0.1-3.6-0.1c-0.6,0.1-1.2,0.3-1.8,0.5
			c-1.4,0.5-3.6,1.1-4.1,2.7c-0.5,1.5,0,4-0.1,5.6c0,1-0.9,1.5-1.7,1.4c-0.2,1.7-2.9,1.6-3-0.2c0-0.6,0-1.1,0-1.7
			c-0.6,1.6-1,3.4-1,5.2c0.1,4.8,2.4,9.8,0.6,14.3c-3.3,7.9-16.2,7.2-20.1,14.8c-1.9,3.7-2.3,9.8-6.5,9.9c-1.2,0-2.3-0.6-3.4-1.1
			c-62.4-34.1-108.7-96.4-123.3-165.9c-4.5-21.5-6.1-43.5-7.4-65.4c-3.8-65.4-4.7-130.9-2.5-196.3c9.8,10.6,23.6,16.8,37.5,20.9
			c52.1,15.1,111.7,1.3,151.9-35.2c2.5-2.3,5.3-4.8,8.7-4.9c2.5-0.1,4.9,1.2,7.1,2.4c30.5,16.8,63.4,30.6,98.1,34.2
			c34.7,3.6,71.5-3.8,98.6-25.7C645,135.2,645.9,202.4,643.7,269.5z M438.2,266.8c2.6,2.7,5.8,4.8,9.3,6.2c-1.6,2.7-0.6,6.1,0.1,9.2
			c0.7,3.1,0.7,6.9-2,8.6c-2.6,1.6-6.3-0.2-7.7-2.9s-1.3-6-1.1-9.1c0.1-2.2,0.3-4.4,0.4-6.6c0.1-1.7,1.4-4.1,2.8-3.1L438.2,266.8z
			 M441.4,309.6c2.5,0,4.2,2.3,5.5,4.4l0.7,3.4c-2.7,1.8-6.7,1.9-8.8-0.5C436.7,314.4,438.2,309.6,441.4,309.6z M446.5,345l1.9-0.2
			c2.4,3.6,3.9,7.7,4.3,12c3.2-0.6,6.1-2.9,7.3-5.9c2.3,2.1,0.3,6-2.2,7.7c-2.6,1.7-5.9,3.1-6.8,6c-0.7,2.4-0.8,6.2-3.2,5.8
			c-1.6-0.3-2-2.4-1.9-4.1C446,359.2,446.3,352.1,446.5,345z M494.3,290.2c1.5,2.9,5.1,3.9,7.7,5.8s3.8,6.8,0.8,7.9
			c-5.4-1.2-11-1.3-16.4-0.3c-1.2,0.2-2.4,0.5-3.2,1.4c-1,1-1.1,2.5-1.2,3.9c-0.4,5.2,0.1,11.7,4.9,13.6c3,1.2,6.4-0.1,9.5,0.8
			c3,0.9,5,4.2,4.5,7.3c-0.4,3.1-3.3,5.6-6.4,5.7c-2.4,0-4.6-1.2-6.9-1.8c-7.7-2-15.4,3-23.3,2.9c-1.3,0-2.7-0.2-3.6-1.1
			c-0.9-0.9-1.1-2.3-1.3-3.6c-1.6-15.5-0.5-31.2,3.2-46.3c0.6-2.6,1.6-5.5,4-6.7c1.3-0.6,2.8-0.6,4.2-0.6c5,0,10.1,0,15.1,0
			c-0.1-2.9,3.8-5.6,6.3-3.8C496.5,278.3,492,285.5,494.3,290.2z M522.9,315.1c0,1.7,0.7,3.7,2.4,4c1,0.2,1.9-0.3,2.8-0.7
			c5.2-2.5,10.4-5,15.6-7.5c0.9-0.4,1.9-0.9,2.8-0.8c2.1,0.2,3.2,3,2.4,4.9s-2.6,3.3-4.4,4.4c-4.3,2.6-9,4.4-13.9,5.6
			c-4.1,1-8.7,1.6-11.5,4.8c-2.1,2.4-3.5,6.5-6.7,6.4c-3.5-0.1-4.5-5.1-2.9-8.2c1.6-3.1,4.5-5.5,5.4-8.9c1.1-4.3-1.7-8.5-3.6-12.6
			c-1.9-4-2.7-9.7,1-12.2c3.3-2.3,8.2,0.1,10.1,3.6c1.9,3.6,1.6,7.9,1.3,11.9L523,310C523.4,311.7,522.9,313.4,522.9,315.1z
			 M536.5,276.2l1.6-1.3c3.2,0.8,6.2,3.1,6.8,6.3c0.6,3.2-2.4,6.9-5.5,6.1C535.2,286.3,535.3,280.4,536.5,276.2z M517,276.6
			c-0.3,0.9-0.7,1.7-1.4,2.3c-0.8,0.7-2,1.1-3,1.5c-4.1,1.9-6.4,7-5.2,11.4l-2.4-1c-3.2-1.3-4.4-5.4-3.8-8.8c0.7-3.4,2.9-6.2,5-8.9
			c1.5-1.9,3.2-3.9,5.5-4.2C515.4,268.6,518.1,273.1,517,276.6z M477.7,345.2c-5.6,3.1-12.5,4-18.7,2.4c3-4.9,9.5-7.2,14.9-5.3
			L477.7,345.2z M478.4,265.3l1.6-0.3c-4.5-0.2-9.5-0.1-12.7,3.1c-2.2,2.2-3.1,5.6-5.8,7.3c-2.4,1.5-5.9,1-7.8-1.2
			c-1.8-2.2-1.8-5.7,0.1-7.9c1.1-1.3,2.8-2,4.3-2.7c3.8-1.7,7.6-3.3,11.4-5c2.5-1.1,5.1-2.2,7.8-2.1c2.7,0.1,5.5,1.8,6,4.5
			C483.9,263.8,480.8,266.6,478.4,265.3z M549.8,341c-0.2-3.5,5-5.5,7.6-3.1c2.6,2.4,1.7,7.1-1.2,9c-1.6,1.1-4,1.3-5.5,0
			c-1.5-1.3-1.4-4.1,0.4-4.9L549.8,341z M567,348l1.5-0.6c2.4,3.6-0.3,9.6-4.7,9.6c-4.4,0.1-7.2-6.4-3.9-9.3
			C561.9,345.9,565.2,346,567,348z M571.8,330.1l2.8-1.7c2,2.5,1.8,6.7-0.7,8.7s-7,0.9-7.8-2.2S569,328.4,571.8,330.1z M586.6,325.5
			c1.7,1.9,3.5,3.9,4.3,6.3s0.2,5.5-1.9,6.9c-3.1,2-7.6-0.9-8.2-4.6c-0.6-3.7,1.6-7.3,4.2-9.9c0.7,0.2,1.3,0.7,1.7,1.4L586.6,325.5z
			 M607.3,327.3c-0.2,0.7-0.6,1.5-1.4,1.6c-0.6,0.1-1.1-0.4-1.5-0.8c-2.1-2-4.2-4-6.2-5.9c-1.3-1.2-2.6-2.5-3.1-4.2
			c-0.9-3.6,3.2-7.1,6.9-6.6c3.7,0.5,6.5,3.8,7.8,7.3l-2,1.3C608.3,322.4,608.1,325,607.3,327.3z M428.2,262.7
			c0.1,5-6.1,4.9-9.3,3.5c-3.7-1.6-6.7-5-7.7-9c5.6-1.4,11.8,0.8,15.2,5.5L428.2,262.7z M408.9,259.2c-0.9,2.6-3.8,4.2-6.5,4.3
			c-2.8,0.1-5.5-0.9-8.1-1.9c-1.5-0.6-3.2-1.7-2.7-3.2c0.2-0.6,0.7-1,1.2-1.3c2.7-1.9,5.9-3,9.2-3.3l2.8-0.3
			C407.6,253.2,409.8,256.6,408.9,259.2z M379.7,221.1l0.4-3.9c2.1-0.9,4.6,0.2,5.9,2c1.4,1.8,1.8,4.1,2.2,6.3c1,6,1.6,12,1.8,18.1
			c0,1.3,0,2.8-1,3.6c-1.1,0.9-2.7,0.7-4,0.3c-2.4-0.5-4.9-1.1-6.8-2.6c-2-1.4-3.4-3.9-2.8-6.3c0.4-1.5,1.5-2.8,2.4-4.1
			C380.4,230.7,381.1,225.6,379.7,221.1z M352.4,216.3c-1.5,2.1-0.6,5,0.9,7.1c1.5,2.1,3.5,3.9,4.3,6.3c0.8,2.4-0.3,5.8-2.9,6
			c-2.5,0.2-4.1-2.5-5-4.9c-1.8-4.4-3.6-8.9-5.3-13.3c-0.7-1.7-1.4-3.6-2.8-4.8c-3.3-3-9.5-2.5-11.4-6.5c-1.4-3,0.8-6.7,3.8-7.9
			s6.5-0.4,9.5,1c3,1.3,5.8,3.3,7.6,6.1c1.7,2.8,2.1,6.6,0.4,9.4L352.4,216.3z M372.9,271.8l1.2,0.2c-0.9,2.8-0.1,5.7,0.2,8.6
			c0.2,2.9-0.3,6.3-2.9,7.7c-1.3,0.7-2.8,0.8-4.3,0.8c-4.6,0.1-9.2-0.2-13.7-0.8C358.6,281.6,365.3,275.9,372.9,271.8z M362.3,199.1
			c4.1,5.3,5.7,12.5,4.1,19l-0.4-2.4c-3.4-0.8-6.2-3.7-7-7.1C358.3,205.2,359.6,201.4,362.3,199.1z M366.2,230.3
			c-2.5-2.1-1.3-7.1,1.9-7.5l3.2-3.2c2.8,1.7,4.3,5.4,3,8.4C373,231,368.7,232.4,366.2,230.3z M311.4,234.2c-1.6,1-3.1-1.6-1.5-2.6
			c3.6-2.3,7.5-3.9,11.6-4.9c1.3-0.3,2.3,1,1.7,2.2c-1.4,2.6-3.5,4.3-6.2,5.4c-1.5,0.6-2.3-1.3-1.5-2.3
			C314.1,232.6,312.7,233.4,311.4,234.2z M312,243.5c1.3-1.7,4-2.5,5.7-1.1l4.3-3.3c1.3,0,2.5,1,2.8,2.3c-2.2,0.3-3.7,2.4-4.5,4.4
			c-0.8,2-1.4,4.3-2.9,5.9c-1.5,1.6-4.5,2.2-5.8,0.4c-0.5-0.7-0.7-1.5-0.8-2.4C310.6,247.5,310.7,245.2,312,243.5z M324.1,198.5
			c-2.1-0.9-4.2-0.9-6.4-0.1c-0.3,0.1-0.6,0.1-0.9,0c0,1.6-2.5,2.1-2.9,0.4c-0.6-2.5,1-4.8,3.5-5.6c2.9-0.9,5.7,0.8,7.9,2.5
			C326.5,196.6,325.8,199.1,324.1,198.5z M303.9,160l0.3-1.1c1,2.5,4.8,1.5,7.3,2.6c3.5,1.5,3.2,7,0.3,9.4
			c-2.8,2.5-6.9,2.7-10.7,2.9c-1.9,0.1-4.5-0.4-4.7-2.3c-0.2-2,2.3-2.8,4-3.8C303.1,166.2,304.5,162.9,303.9,160z M285.1,179.5
			c-1.1-2.8-2.2-5.7-3.3-8.5c-0.9-2.4-1.9-5-1.3-7.6s3.6-4.6,5.8-3.4l-2.1,3.5C287.3,168.2,287.6,174.5,285.1,179.5z M294.7,235.5
			c-1.3-1.5-3-2.6-4-4.2c-1.1-1.6-1.2-4.1,0.4-5.3l0.9-0.3c3.9,0.9,7.1,4,8.2,7.9c1.1,3.8-0.1,8.2-3,11
			C297.8,241.4,296.9,237.9,294.7,235.5z M274.4,237.8c-2.3-3.8-4.1-8.6-2-12.5l0.4-1c3.5,2.9,7.2,6,8.4,10.4c0.4,1.5,0.5,3.1,1,4.6
			c1.1,3.1,4,5.2,6.8,7c2.8,1.8,5.7,3.9,6.9,7c1.2,3.1-0.6,7.4-3.9,7.6c-1.6-3.5-3.3-7-4.9-10.4c-0.3-0.7-0.7-1.5-1.5-1.8
			c-1.8-0.7-3,1.9-3.1,3.8s-0.6,4.6-2.5,4.5c-1.5-1.8-0.6-4.6-0.5-7C279.5,245.5,276.7,241.6,274.4,237.8z M425.1,339.5
			c-4.4,0.8-8.9,0.8-13.3,0.1c-1.7-0.3-3.9-1.7-3-3.2c0.3-0.4,0.7-0.7,1.2-0.9c4.5-2.2,9.8-2.5,14.5-0.8L425.1,339.5z M378.8,355.4
			c-8.1-1.9-18.1-3.3-23.6,3c-0.7,0.8-1.4,1.7-2.4,1.8c-2.5,0.1-1.9-3.9-3-6.1c-2-3.9-8.4-0.9-12.3-3c-3.6-2-2.9-7.8,0.2-10.4
			c3.1-2.6,7.6-2.9,11.6-3c4-0.1,8.1,0,11.8,1.3c2.8,1,5.4,2.8,6.9,5.2C372.6,347,376.4,350.8,378.8,355.4z M320.8,332
			c-0.9,2.5-4.1,4.4-6.3,2.9c-1.8-1.2-1.9-4.1-0.7-5.9c1.2-1.9,3.2-3,5.2-4l1.2-0.7C321,326.8,321.7,329.5,320.8,332z M327.2,306.9
			c2.6,1.9,3.1,5.5,3.1,8.7c0,3.2-0.3,6.4-1,9.6c-4.9-3.4-8.2-9.1-8.8-15.1l-0.2-0.1C319.8,306.8,324.6,305,327.2,306.9z
			 M320.9,342.9l0.3,1.1c-0.3-3.9,4.2-7.2,7.9-5.9c0.4,0.1,0.7,0.3,1,0.6c0.5,0.7,0.2,1.7-0.2,2.5c-1,2.2-2.3,4.7-4.7,5.5
			C322.8,347.5,319.7,345.1,320.9,342.9z M309.4,326.1c-1.2,1.6-3.2,2.1-5.1,2.6c-1.1-2.2,0.4-5.2,2.7-5.8l1-1.4
			C309.9,321.6,310.5,324.5,309.4,326.1z M293,314.7c-1,0.7-2.2,1.1-3.2,1.8c-1.6,1.2-2.5,3.1-3.9,4.5c-1.4,1.4-4.1,2.1-5.3,0.5
			l-2.1-2.4c-2.1-1.4-0.2-4.8,2.2-5.7c2.4-0.9,5.4-1,6.8-3.1c0.6-0.8,0.8-1.9,1.4-2.6c1.4-1.8,4.7-1.3,5.8,0.8
			C295.8,310.6,294.8,313.3,293,314.7z"/>
	</g>
	<g>
		<path class="st1" d="M482.3,449.2c0.3,0.1,0.6,0.3,0.9,0.5c0-0.1,0-0.3,0-0.4C482.9,449.2,482.6,449.2,482.3,449.2z"/>
	</g>
	<g>
		<path class="st2" d="M422.2,103.3c-2.6-1.6-5.7-1-8.3,0.3c-0.2,0.1-0.3,0.1-0.4,0.1c0,3.8,0,7.5,0,11.3c0.1,0,0.1,0,0.2-0.1
			c3.4-0.6,8.3-1.6,10.3-4.8C425.5,107.8,424.5,104.8,422.2,103.3z"/>
	</g>
	<g>
		<path class="st2" d="M261.3,144.7c0.4,0.1,0.9,0.2,1.3,0.2C262.2,144.8,261.7,144.8,261.3,144.7z"/>
	</g>
	<g>
		<path class="st2" d="M528,435.8v-0.2c0,0.1-0.1,0.1-0.1,0.2L528,435.8z"/>
	</g>
	<g>
		<path class="st2" d="M528,407.3V407h-0.3C527.8,407.1,527.9,407.2,528,407.3z"/>
	</g>
	<g>
		<polygon class="st2" points="521.8,260.2 521.8,260.2 521.8,260.2 		"/>
	</g>
	<g>
		<path class="st2" d="M542.3,93.9c-34.7-3.6-67.5-17.4-98.1-34.2c-2.2-1.2-4.5-2.5-7.1-2.4c-3.4,0.1-6.2,2.6-8.7,4.9
			c-40.2,36.5-99.7,50.3-151.9,35.2c-13.9-4-27.6-10.2-37.5-20.9c-2.1,65.4-1.3,131,2.5,196.3c1.3,21.9,2.9,43.9,7.4,65.4
			c14.6,69.6,60.9,131.9,123.3,165.9c1.1,0.6,2.2,1.2,3.4,1.1c4.2-0.1,4.6-6.2,6.5-9.9c3.9-7.6,16.9-6.9,20.1-14.8
			c1.8-4.5-0.5-9.5-0.6-14.3c0-1.8,0.3-3.6,1-5.2c-0.1-2.3-0.1-4.7-0.2-7c0-0.9-0.3-2.4,0.3-3.2c1.1-1.6,3.8-1.3,5.8-1.1
			c0.2-0.1,0.3-0.1,0.5-0.1c1.3,0,2.5,0.1,3.8,0.1c0.7-0.2,1.5-0.3,2.3-0.3c3.3,0,6.6,0.1,10,0.3c0-2.8-0.4-5.5-1.2-8.2h-58.6v-38.2
			h60.8v0.2c0.1-0.1,0.1-0.1,0.2-0.2c1.8-2.2,1.2-5.4,0.6-8.1c-3-15.2-3.2-30.9-0.6-46.1c-8.9,0.4-17.8,2.2-26.2,5.3
			c12.8,10.4,13.1,32.6,0.6,43.3c-0.9,0.8-1.9,1.5-3.1,1.7c-3.7,0.6-5.8-3.9-7.2-7.3s-5.4-7.2-8.2-4.8c2.3-2,0.1-6-2.7-6.8
			c-2.9-0.8-5.9,0.1-9,0.2c-4.1,0.1-8.1-1.4-12.1-1.3c-4.1,0.1-8.7,3-8.2,7.1c-4.6-3.7-5.7-10.9-2.5-15.8
			c-6.9-1.5-14.4,0.1-20.2,4.2c-10.3-3.9-22.5-10.8-21.2-21.7c-3.2,9-6.3,18.1-9.4,27.2c-2.1-7.5-6.8-13.9-11.4-20.1
			c-4-5.4-8-10.7-11.9-16.1c-3.8-5.1-7.8-10.7-8-17.1c-0.1-4.7,1.8-9.2,4.1-13.3c4.8-8.5,15.9-16.6,23.3-10.3
			c3.9,3.3,7.3,10.3,11.7,7.7c3.7-9.1,5.8-22.5-3.4-26.1c3.2-6.2,9.2-13,15.9-10.8c4.5,1.4,6.7,6.3,8.5,10.7
			c2.3,5.7,4.6,11.4,6.8,17.2c2.4,5.9,5.2,12.3,10.9,15.1c5.7,2.8,12.8,1,18.7,3.3c5.7,2.2,9.4,7.5,13.4,12.2
			c3.9,4.7,9.2,9.2,15.3,8.7c6.1-0.5,10.5-9.4,5.5-13c-3.6-0.7-7.5,0.6-9.9,3.4c-4-5.8-8.1-11.6-12.1-17.3c-0.7-1.1-1.5-2.2-1.4-3.5
			c0.1-1.4,1.2-2.4,2.2-3.3c4.7-4.4,9.7-9,16-10.7c6.2-1.7,14.1,0.5,16.5,6.5c2.9,7.2-2.6,17.2,3.2,22.4c4,3.6,10.7,1.5,13.9-2.8
			c3.1-4.3,3.6-9.9,3.9-15.2c0.5-9,0.6-18.4-3.6-26.4c-4.1-8-13.9-13.8-22.3-10.5c-11,4.3-14,21-25.6,23.2c-2.8,0.6-5.8,0.1-8.6,0.7
			c-7.6,1.6-11.7,12-7.2,18.4c-21.8-6.1-32.8-36-20-54.8c-8,2.1-16.6-0.2-24.7,1c-12.4,1.8-23,12.3-24.8,24.7
			c-8.9,2-21.4,1.7-23.3-7.2c-0.8-4.1,1.3-8.2,1.8-12.3c0.5-4.1-2.3-9.5-6.4-8.5c2.1-12-1.9-24.9-10.5-33.7
			c-0.9-5.2,4.9-9.5,10.2-9.5c5.3-0.1,10.2,2.5,15.2,4.1c11.9,3.8,25,1.9,36.9-1.9c2.8-0.9,5.7-2,7.4-4.3c1.7-2.3,1.7-6.2-0.9-7.7
			c-4.9-0.8-10,0.2-14.2,2.8c-1-4.5,0.6-9.6,4.1-12.6c-4.9-2.5-8.5-7.2-9.6-12.5c-2.7-2.5-7.2,0.2-8.8,3.5
			c-1.5,3.3-1.7,7.3-3.9,10.3c-5.8,7.9-22,4.2-24.6,13.7c-7.5-4.7-10.6-15.1-6.9-23.1c2.1-4.5,5.9-9.7,2.9-13.6
			c-1.6-2.1-4.5-2.5-6.9-3.6c-5.5-2.5-8.5-9.4-6.6-15.1c1.8-5.3,7.6-8.8,13.1-8.2c-6.9-1.7-9.7-12.9-3.7-17.3c5-3.7,27,4.5,35,5.5
			c0.9-1.6,2.2-3,3.7-4.2c0.1-0.5,0.2-0.8,0.3-0.7l0.4,0.2c5.2-3.7,12.7-5,18.8-3.9c6.4,1.2,12.4,6.2,13.2,12.7
			c0.4,3-0.7,6.1-2.6,8.5l10.8,6.3c-3-6.5,1.6-16.1-2.6-22.4c-2.3-3.4-7.3-6.3-6-10.3c0.6-1.8,2.4-2.9,4.2-3
			c5.1-0.4,8.8,4.2,13.6,4.4c3.6,0.1,7.7-2.2,10.5,0.2c2.7,2.2,1.5,6.9,3.9,9.5c2.1,2.3,6.2,1.9,8.3,4.2c2.9,3,0.4,7.9-0.1,12.1
			c-0.9,6.9,4.2,13.1,9.7,17.4c5.5,4.3,11.8,7.8,15.5,13.7c1,1.6,1.8,3.3,3.3,4.4c1.3,0.9,3,1.2,4.7,1.3c11.3,0.6,23.5-6.3,33.4-0.8
			c2.3,1.3,4.2,3.1,6.7,3.9c7.8,2.7,14.9-6,23.1-7.4c8.2-1.4,19.2,3.6,23.6-3.5c1.1-1.7,1.3-3.8,2.1-5.7c2.3-5.3,8.3-7.7,12.8-11.4
			s6.9-11.7,1.9-14.6c-1.2-0.7-2.8-1-3.8-2c-1.4-1.5-1.2-3.9-0.8-5.9c1.5-8.9,3.9-19.1,11.8-23.4c2.5-1.4,5.4-2,8.2-2.6
			c7.3-1.6,14.6-3.1,22-4.7c1.4,8-10.6,12.4-11.4,20.5c-0.5,5.6,4.5,12,0.8,16.2c-2.4,2.8-7.8,2.9-8.1,6.9c-0.2,2.5,1.9,4.6,4.4,4.9
			c7.6,0.7,16.3-0.3,22.2-5.5c5-4.4,7.3-12.2,3.9-17.9c-5.6,0-11.1,2.8-14.5,7.3c-2.6-3.9,0.2-9.1,3.7-12.2
			c3.5-3.1,7.9-5.7,9.3-10.2c0.6-1.8,0.6-3.7,1.7-5.2c2.6-3.8,8.8-1.8,12.1,1.5s6.4,7.7,11.1,7.9c6.6,0.3,10.9-8,17.5-8
			c6.8,0,12,9.1,18.5,7c3-1,5.2-4.3,9.2-1.9c2.4,1.4,3.7,4.1,3.5,6.9c-0.3,5.1,0.2,10.9-2.3,15.6c-1.9,3.7-6,6.5-10,5.6
			c-4.1-1-10-4.6-11-0.5c9.9,7.1,21.1,16.8,19.4,28.9c-0.6,4.4-2.9,8.3-5.2,12.1l-8.2,13.7c-0.4,0.6-0.9,1.2-1.5,1.5
			c-3.5,1.8-5.5-4.2-5.8-8.1c-0.4-5-2.4-9.9-5.9-13.5c-10.8-11.3-26.3-7.8-40.3-5.8c-11.9,1.7-26.2,1.3-33.2-8.6c-3-0.5-4.6,4-3,6.6
			c1.5,2.6,4.6,3.9,6.9,5.8c3.9,3.1,6.1,7.9,9.2,11.8c3.1,3.9,8.2,7.3,12.9,5.6c4.9-1.7,9.3-8.1,13.5-5.2c-2,5.6-6.5,10.2-7.1,16.1
			c-0.7,6.4,8.4,13.3,11.7,6.3c0.4-0.9,1.1-1.6,2-2c3.8-1.6,4.4,5.7,7.5,8.5c1.8,1.6,4.5,1.4,6.8,0.9c7.1-1.3,14-4.1,20.1-8.1
			c3.8-2.5,7.3-5.5,11.6-6.9c4.3-1.4,9.7-0.8,12.3,2.8c-5.1,1.1-8.1,7.6-5.7,12.1c1.4-2.4,5.4-1.2,6.5,1.4c1,2.5,0.1,5.4-0.9,8
			c-5.8,15.6-11.5,31.2-17.3,46.8c-3.9-0.6-8.1,1.9-9.3,5.6c-5.1,2.1-10.8-1.1-14.6-5.1c-3.7-4-6.5-9-11.1-12.1
			c-7.9-5.4-18.7-3.4-27.7,0.1c-0.3,3.2-0.1,6.4,0.7,9.5c0,0.1,0.1,0.1,0.1,0.2l9.4,5.2l0,0.1c0,0,0,0,0,0
			c0.3-6.8,7.3-13.2,14.2-11.6c-1,4.2-2,8.4-3.1,12.5c4,0.7,8.4-1.2,10.7-4.6c0.7,5.9,3.5,11.5,7.9,15.4c-1.6,6.5-8.6,10.1-15,11.9
			s-13.6,3.1-18.3,7.8c-4.7,4.8-4.6,14.7,1.8,16.6c12-6.6,23.9-13.3,35.9-19.9c3.3-1.8,6.8-3.7,10.6-3.9c11.2-0.5,17.2,14,15.2,25
			c-3,16-15.3,28.3-27.2,39.4c-4.7,0.3-6.2-6.3-5.2-10.9s2.5-10.4-1.3-13.2c-6.8,2.1-8.4,10.7-11.2,17.2
			c-3.1,7.3-9.8,13.6-17.8,14.2s-16.3-6-15.8-14c0.2-3.9,2.2-8.6-0.6-11.3c-1.5-1.5-3.9-1.6-6-1.6c-6.1-0.1-12.5-0.1-18,2.6
			s-9.7,9-7.9,14.9c6.7-1.3,12.9-4.8,17.5-9.8c6.6,5.7,13.8,13.8,10.7,21.9c-2.1,5.3-7.8,8-13.1,10.3c-9.5,4-19.1,8-28.6,12
			c1.2,2.1,2.9,3.3,5,3.9H532v36.7l-61.3,0.3c-0.6,2.2,1.1,4.8,3.2,6c0.2-0.1,0.4-0.1,0.6-0.1c3.7,0.1,7.3,0.2,11,0.3
			c1.7,0.1,4.2-0.3,5.4,1.2c1.4,1.7,1,5.3,1.2,7.3c0.3,3,0.5,5.9,0.7,8.9c0.2,0.3,0.3,0.7,0.3,1.2c-0.1,0.3-0.1,0.6-0.2,0.9
			c0,0.1-0.1,0.1-0.1,0.2c1.1,4.9,2,9.9,4.2,14.1c4.2,8,13.3,12.6,22.3,13.3s17.9-2,26.2-5.7c38.6-17,65.8-53.8,80-93.5
			c14.2-39.7,17-82.5,18.4-124.7c2.2-67.1,1.3-134.3-2.8-201.3C613.7,90.1,576.9,97.5,542.3,93.9z M480.1,171.3h-81.8V89.6h81.8
			V171.3z"/>
	</g>
	<g>
		<path class="st2" d="M487.8,239.8c-0.1,0.1-0.2,0.2-0.2,0.3l0.1,0.1c0.1-0.1,0.1-0.2,0.2-0.3L487.8,239.8z"/>
	</g>
	<g>
		<path class="st2" d="M405.3,453.7c0.2-0.2,0.3-0.4,0.6-0.7C405.4,453.3,405.3,453.4,405.3,453.7z"/>
	</g>
	<path class="st2" d="M550.7,283.9c-0.1,0-0.3,0-0.4,0c-0.7-0.2-1.2-1.3-0.9-2c0.8-1.7-1.7-3.2-2.6-1.5c-1.2,2.4-0.1,5.6,2.6,6.4
		c1.7,0.5,3.5-0.3,4.5-1.6c-0.6-0.6-1.4-1-2.4-1C551.3,284.1,551,284,550.7,283.9z"/>
	<g>
		<path class="st1" d="M556.3,280.9c0-0.1-0.1-0.1-0.1-0.2c-2-1.1-3.8-0.8-5.8-1.6c0.4,0.7,0.8,1.4,1.2,2c0,0,0,0,0,0
			c2.1-0.1,3.7,0.9,5,2.4c0.1-0.2,0.3-0.5,0.3-0.8l0.1-1.2C556.8,281.5,556.5,281.3,556.3,280.9z"/>
	</g>
	<g>
		<path class="st1" d="M326.3,145.5c1.9-2.4,3-5.5,2.6-8.5c-0.8-6.5-6.8-11.5-13.2-12.7c-6.1-1.1-13.6,0.2-18.8,3.9
			c-0.2,0.2-0.4,0.3-0.6,0.5c-1.5,1.2-2.8,2.6-3.7,4.2c0,0,0,0,0,0l29.1,15.9C323.4,148.2,325,147,326.3,145.5z"/>
	</g>
	<g>
		<path class="st1" d="M317.4,149.3c-1.2,5.5,4.1,10.2,8.7,13.4c3.9,2.7,8.3,5.6,13.3,4c2.5-0.8,4.4-3,4.4-5.7l-22.2-12.2
			C320.2,149.3,318.8,149.5,317.4,149.3z"/>
	</g>
	<g>
		<path class="st1" d="M474.2,230c0.9,0.8,1.8,1.5,2.7,2.1C476.3,231.1,475.3,230.4,474.2,230z"/>
	</g>
	<g>
		<path class="st1" d="M470.1,226.7c5.2-1,10.1,2.4,11,7.5c0.2,0.1,0.3,0.1,0.5,0.2c-0.5-5.2-8.2-14.4,0.1-16.8
			c1.9-0.5,2.7,2.4,0.8,2.9c-4,1.1,0,7.2,1,9.1c1.1,2.2,1.7,4.4,1,6.7c1,0.5,1.9,1,2.9,1.4c0.9,0.5,0.9,1.4,0.5,2l0.1,0.1
			c1.6-2.5,4.2-4.6,7.2-5.1c1.9-0.4,4.7-1.1,4.3-3.1c-0.1-0.7-0.7-1.2-1.2-1.7c-2.1-2-5.2-4.1-7.7-2.6c-1.4,0.8-2.2,2.6-3.8,2.9
			c-2.7,0.6-3.8-4.1-1.6-5.9c2.2-1.8,5.3-1.4,8.1-1.2s6.1-0.2,7.5-2.6c0.9-1.7,0.5-3.8,0-5.7c-1.3-4.5-3.3-9-7-11.9s-9.4-3.6-13-0.5
			c-3.7,3.2-4.4,9.6-9.1,11.1c-2.7,0.9-6.7,0.1-7.7,2.8c-0.6,1.7,0.7,3.5,1.3,5.2c0.8,2,0.7,4.2,0.7,6.4l4.2,2.3
			c-0.3-0.3-0.6-0.6-0.8-0.9C468.7,228.5,468.9,227,470.1,226.7z"/>
	</g>
	<g>
		<path class="st1" d="M459.9,198.8c1.6-1.5,3.6-2.4,5.7-3.1c5-1.8,10.2-2.9,15.5-3.3l-0.7,0.1c8.4-0.7,18.6-2.6,21.5-10.5
			c0.3-0.9,0.6-2,1.4-2.6c1.3-0.9,3-0.1,4.3,0.8c9.5,6.8,11.6,21.8,4.4,31c-1.5,1.9-3.4,3.6-4.4,5.7c-3.7,7.5,3.2,16.7,0.3,24.5
			c-0.8,2.1-2.2,3.8-3.9,5.2c0.6,0.1,1,0.6,1.2,1.2c2.9-0.7,5.8,0.5,8.4,2.2c3.3,2,6.5,4.2,9.7,6.4c0.5-0.2,1-0.1,1.4,0.3
			c2.3-0.6,4.5-0.4,6.2,1.9c1.8,2.4,3.3,4.6,5.4,6.5c1.1-0.3,2.6,0.3,3.8,1.2c0.1,0.1,0.2,0.2,0.4,0.3c0,0,0.1,0.1,0.1,0.1
			c0.2,0.2,0.3,0.3,0.5,0.5c0.9,0.9,2,1.4,3,1.9c0.5,0.1,0.9,0.3,1.2,0.6c0.4,0.2,0.9,0.5,1.3,0.9c0.7,0.6,1.2,1.3,1.7,2.1
			c-0.8-3.1-1-6.3-0.7-9.5c8.9-3.5,19.7-5.5,27.7-0.1c4.5,3.1,7.3,8.1,11.1,12.1c3.7,4,9.5,7.2,14.6,5.1c1.3-3.7,5.4-6.3,9.3-5.6
			c5.8-15.6,11.5-31.2,17.3-46.8c0.9-2.6,1.9-5.4,0.9-8c-1-2.5-5.1-3.7-6.5-1.4c-2.4-4.6,0.7-11.1,5.7-12.1c-2.6-3.7-8-4.3-12.3-2.8
			c-4.3,1.4-7.8,4.4-11.6,6.9c-6.1,4-12.9,6.8-20.1,8.1c-2.3,0.4-5,0.6-6.8-0.9c-3.1-2.7-3.7-10.1-7.5-8.5c-0.9,0.4-1.6,1.1-2,2
			c-3.3,7-12.4,0.1-11.7-6.3c0.6-5.9,5.1-10.5,7.1-16.1c-4.3-2.9-8.7,3.5-13.5,5.2c-4.7,1.6-9.8-1.7-12.9-5.6
			c-3.1-3.9-5.3-8.7-9.2-11.8c-2.4-1.9-5.4-3.2-6.9-5.8c-1.5-2.6,0-7.1,3-6.6c7,9.8,21.2,10.3,33.2,8.6c14-2,29.5-5.4,40.3,5.8
			c3.5,3.7,5.4,8.5,5.9,13.5c0.3,4,2.3,10,5.8,8.1c0.6-0.3,1.1-0.9,1.5-1.5l8.2-13.7c2.3-3.8,4.6-7.7,5.2-12.1
			c1.7-12.1-9.4-21.8-19.4-28.9c1-4.1,6.9-0.5,11,0.5c4,1,8.1-1.9,10-5.6c2.4-4.7,2-10.5,2.3-15.6c0.2-2.8-1.1-5.5-3.5-6.9
			c-4-2.3-6.2,1-9.2,1.9c-6.5,2.1-11.7-7-18.5-7c-6.6,0-11,8.4-17.5,8c-4.7-0.2-7.8-4.7-11.1-7.9s-9.5-5.3-12.1-1.5
			c-1,1.5-1.1,3.5-1.7,5.2c-1.4,4.4-5.8,7.1-9.3,10.2c-3.5,3.1-6.3,8.4-3.7,12.2c3.3-4.5,8.9-7.3,14.5-7.3
			c3.4,5.7,1.1,13.6-3.9,17.9c-5.9,5.1-14.5,6.2-22.2,5.5c-2.5-0.2-4.5-2.4-4.4-4.9c0.3-3.9,5.6-4.1,8.1-6.9
			c3.7-4.2-1.3-10.6-0.8-16.2c0.7-8,12.7-12.5,11.4-20.5c-7.3,1.6-14.6,3.1-22,4.7c-2.8,0.6-5.7,1.2-8.2,2.6
			c-8,4.3-10.3,14.5-11.8,23.4c-0.3,2-0.6,4.4,0.8,5.9c1,1,2.5,1.3,3.8,2c5,2.9,2.5,10.9-1.9,14.6s-10.5,6.1-12.8,11.4
			c-0.8,1.8-1.1,3.9-2.1,5.7c-4.3,7.1-15.3,2.1-23.6,3.5c-8.2,1.4-15.2,10-23.1,7.4c-2.5-0.8-4.4-2.7-6.7-3.9
			c-9.9-5.5-22.1,1.4-33.4,0.8c-1.6-0.1-3.3-0.4-4.7-1.3c-1.5-1.1-2.3-2.8-3.3-4.4c-3.7-5.9-10.1-9.4-15.5-13.7
			c-5.5-4.3-10.5-10.5-9.7-17.4c0.5-4.2,3-9.1,0.1-12.1c-2.2-2.3-6.2-1.8-8.3-4.2c-2.3-2.6-1.2-7.3-3.9-9.5c-2.8-2.3-6.9,0-10.5-0.2
			c-4.8-0.2-8.6-4.8-13.6-4.4c-1.9,0.2-3.6,1.3-4.2,3c-1.4,3.9,3.6,6.8,6,10.3c4.3,6.3-0.3,15.9,2.6,22.4c0.4,0.8,0.8,1.6,1.5,2.3
			c1.9,2.2,5.1,3.4,5.3,6.7c0,0.1,0,0.2,0,0.2l13.6,7.4c-0.2-0.3-0.4-0.7-0.4-1.1c-0.4-2.7,3.4-4.1,6-3.2l0,0.3
			c1.3-2.1,5.1,0.3,4.4,2.7c-0.7,2.4-3.6,3.4-6.1,3.2c-0.2,0-0.3,0-0.5-0.1l39,21.3c0.2-0.2,0.4-0.3,0.6-0.5
			c2.3-1.8,5.4-2.3,8.3-2.5c8.2-0.8,18.3,0.8,21.5,8.4c0.9,2.2,1.1,4.7,1.3,7.1c0.1,1.7,0.2,3.3,0.3,5l23.4,12.8c0.3-4,0.4-8,0.7-12
			C456.2,205.9,457,201.6,459.9,198.8z M606.1,242.2c1.3-5.1,2.7-10.2,4-15.3l1.4-0.4c1.6-1.4,3.9,1.1,3.6,3.2
			c-0.4,2.1-2,3.7-2.7,5.7c-0.8,2.5,0,5.3-0.6,7.8c-0.7,2.5-4.6,4.3-5.7,2C605.6,244.4,605.8,243.3,606.1,242.2z M602.3,246.1
			c-0.1,5.5-0.2,11-0.2,16.5c0,0.7,0,1.5-0.4,2.2c-0.8,1.7-3.3,1.9-5.1,1.4c-4.5-1.2-8.2-5.6-7.7-10.3c0.4-4.6,5.7-8.4,10-6.6
			L602.3,246.1z M579,234.4c1.2-2.7,4.2-4.9,7.1-4.1c3.5,0.9,4.6,5.2,5.2,8.7l1.8-2.4c1.3-2.2,5.1,0.1,4.7,2.6
			c-0.3,2.5-2.8,4.1-5.1,5.1c-2.6,1.2-5.3,2.2-8.1,3.1c-1.8,0.6-4,0.9-5.4-0.4c-0.9-0.9-1.1-2.4-1.1-3.7
			C577.9,240.3,577.8,237.1,579,234.4z M546,215l2.2-0.9c-0.2-0.9,1.3-1.4,2-0.8c0.7,0.6,0.8,1.7,0.8,2.6c0.2,5.3,0.2,10.9-2.6,15.3
			c-0.4,0.6-0.9,1.2-1.6,1.5c-1.9,0.7-3.4-1.8-3.7-3.8C542.4,224.2,543.4,219.1,546,215z M540.2,237.8c2.6-1.4,5.8-1.1,8.7-0.7
			l0.9-2.1c1.4-3.8,4.6-8.5,8.4-6.9c2.8,1.2,3.1,5.1,2.2,8c-2.5,8.1-12.2,13.6-20.1,10.6c-0.9-0.3-1.8-0.8-2.4-1.5
			C536,243,537.6,239.2,540.2,237.8z M525.2,202.7c2.6-3.2,7.7-2.3,11.7-1.2l-2.5,2.8c1.3,3.5-2.3,7.7-5.9,7.1
			C524.7,210.7,522.8,205.6,525.2,202.7z M524.3,234.6c0.6-1.8,1.5-3.7,3-4.9c1.5-1.2,3.9-1.5,5.4-0.3l-1.3,0.5
			c2.1-1,4.2,1.9,3.6,4.1c-0.6,2.2-2.7,3.6-4.6,4.8c-1.9,1.2-4,2.7-4.4,4.9c-0.3,1.8-0.8,4.8-2.4,4
			C522.7,243.3,523,238.8,524.3,234.6z M563.3,145.8c0.7-3.7,2.9-7,5.5-9.7c-0.1-0.2-0.3-0.3-0.4-0.4l-1.3-0.8
			c0.5,0.2,1,0.5,1.3,0.8l0.5,0.3c0,0-0.1,0.1-0.1,0.1c2.2,2.4,2.3,7.1,5,9.4c1.1,0.9,2.5,1.4,3.6,2.3c2.9,2.4,2.4,7.7-0.7,9.9
			c-3.1,2.2-7.8,1.5-10.5-1.2S562.6,149.5,563.3,145.8z M520,138.1l0-0.5c-0.9-2.5,2.3-5.1,4.8-4.1c2.5,1,3.3,4.4,2,6.8
			c-1.2,2.4-3.9,3.6-6.6,3.9c-2.6,0.2-5.3-0.4-7.9-1.1C512.8,139.7,516.6,137.2,520,138.1z M347.1,142.3c-0.5,1.7-2.2,3.1-3.9,2.7
			c-2-0.5-2.6-3.2-2.1-5.2c0.7-3.1,2.8-5.8,5.7-7.2l0.1,4.5C347.2,138.8,347.6,140.6,347.1,142.3z"/>
	</g>
	<g>
		<path class="st1" d="M553.4,276.7c1.6,0.4,2.9,0.8,4.1,1.4l0-0.1l-9.4-5.2c0.4,0.6,0.7,1.2,1.2,1.8
			C550.6,275.5,551.9,276.3,553.4,276.7z"/>
	</g>
	<g>
		<path class="st1" d="M513.7,253.5C513.7,253.5,513.7,253.5,513.7,253.5C513.7,253.5,513.7,253.5,513.7,253.5
			C513.7,253.5,513.7,253.5,513.7,253.5z"/>
	</g>
	<g>
		<path class="st2" d="M375.3,238.7c-0.6,2.4,0.8,4.9,2.8,6.3c2,1.4,4.5,2,6.8,2.6c1.4,0.3,3,0.6,4-0.3c1-0.9,1-2.3,1-3.6
			c-0.2-6.1-0.8-12.1-1.8-18.1c-0.4-2.2-0.8-4.5-2.2-6.3c-1.4-1.8-3.9-2.9-5.9-2l-0.4,3.9c1.5,4.5,0.7,9.6-1.9,13.5
			C376.8,235.9,375.7,237.1,375.3,238.7z"/>
	</g>
	<g>
		<path class="st2" d="M288.9,307.7c-0.6,0.8-0.8,1.8-1.4,2.6c-1.4,2.1-4.4,2.2-6.8,3.1c-2.4,0.9-4.3,4.3-2.2,5.7l2.1,2.4
			c1.2,1.6,3.9,0.9,5.3-0.5c1.4-1.4,2.3-3.4,3.9-4.5c1-0.7,2.2-1.1,3.2-1.8c1.9-1.3,2.8-4.1,1.7-6.1
			C293.6,306.5,290.3,305.9,288.9,307.7z"/>
	</g>
	<g>
		<path class="st2" d="M319,324.9c-2,1-4,2.2-5.2,4c-1.2,1.9-1.1,4.7,0.7,5.9c2.2,1.5,5.4-0.4,6.3-2.9c0.9-2.5,0.1-5.3-0.6-7.8
			L319,324.9z"/>
	</g>
	<g>
		<path class="st2" d="M329.3,325.2c0.7-3.1,1-6.3,1-9.6c0-3.2-0.5-6.8-3.1-8.7c-2.6-1.9-7.4-0.2-6.9,3l0.2,0.1
			C321.1,316,324.4,321.7,329.3,325.2z"/>
	</g>
	<g>
		<path class="st2" d="M307,322.8c-2.4,0.6-3.8,3.6-2.7,5.8c1.9-0.5,4-1,5.1-2.6c1.2-1.6,0.6-4.4-1.4-4.6L307,322.8z"/>
	</g>
	<g>
		<path class="st2" d="M368.2,344.3c-1.6-2.4-4.2-4.3-6.9-5.2c-3.8-1.3-7.8-1.4-11.8-1.3c-4.1,0.1-8.5,0.3-11.6,3
			c-3.1,2.6-3.8,8.4-0.2,10.4c3.9,2.1,10.3-0.9,12.3,3c1.1,2.2,0.6,6.2,3,6.1c1,0,1.7-1,2.4-1.8c5.5-6.3,15.5-5,23.6-3
			C376.4,350.8,372.6,347,368.2,344.3z"/>
	</g>
	<g>
		<path class="st2" d="M325.2,346.7c2.3-0.8,3.6-3.3,4.7-5.5c0.4-0.8,0.7-1.8,0.2-2.5c-0.2-0.3-0.6-0.5-1-0.6
			c-3.7-1.3-8.1,2-7.9,5.9l-0.3-1.1C319.7,345.1,322.8,347.5,325.2,346.7z"/>
	</g>
	<g>
		<path class="st2" d="M480.1,458.2c-3.3-1.8-7.4-1.3-11.2-0.7l-0.6,0.9c-2.9,3.8-4.8,8.5-5.4,13.2c-0.2,1.3-0.2,2.6,0.5,3.7
			c1.4,2.1,4.7,1.6,6.7,0.1c2-1.5,3.4-3.7,5.6-4.9c2.2-1.2,5-1.2,6.7-2.9C485.2,465.1,483.5,460,480.1,458.2z"/>
	</g>
	<g>
		<path class="st2" d="M430.3,469.6c1.7-0.9,1.5-4.3-0.3-4l-2.2-0.2c-1.3-4-5.9-6.7-10-5.7c-4.1,1-7,5.6-6,9.7
			c0.4,1.3,1.1,2.6,2.4,3.3c3.3,1.7,6.9-1.9,10.5-2.4C426.6,469.9,428.6,470.5,430.3,469.6z"/>
	</g>
	<g>
		<path class="st2" d="M444.2,469.1c-2.2,1.1-3.6,3.2-4.8,5.3c4.2,0.6,8.4,0.8,12.5,0.7c1.8,0,4.1-0.5,4.7-2.2
			c0.4-1.4-0.7-3-2.1-3.6c-1.4-0.6-3-0.4-4.5-0.3l0.4,1.7C449.6,468.6,446.4,468,444.2,469.1z"/>
	</g>
	<g>
		<path class="st2" d="M451.9,485.6c-3.3-1.2-7.6-0.1-8.9,3.1c-1.5,3.7,1.7,8,5.6,8.8s7.9-1.1,11-3.6l-0.7-0.9
			C457.5,489.8,455.2,486.8,451.9,485.6z"/>
	</g>
	<g>
		<path class="st2" d="M409.9,335.5c-0.4,0.2-0.9,0.5-1.2,0.9c-0.9,1.5,1.3,2.9,3,3.2c4.4,0.7,8.9,0.7,13.3-0.1l-0.7-4.8
			C419.7,333,414.4,333.3,409.9,335.5z"/>
	</g>
	<g>
		<path class="st2" d="M492.2,275.2c-2.5-1.8-6.4,0.9-6.3,3.8c-5,0-10.1,0-15.1,0c-1.4,0-2.9,0-4.2,0.6c-2.4,1.2-3.4,4.1-4,6.7
			c-3.7,15.1-4.8,30.8-3.2,46.3c0.1,1.3,0.3,2.7,1.3,3.6c0.9,0.9,2.3,1.1,3.6,1.1c7.9,0.1,15.7-4.9,23.3-2.9
			c2.3,0.6,4.5,1.8,6.9,1.8c3.1-0.1,6-2.6,6.4-5.7c0.4-3.1-1.6-6.3-4.5-7.3c-3-1-6.5,0.3-9.5-0.8c-4.8-1.9-5.3-8.4-4.9-13.6
			c0.1-1.4,0.3-2.9,1.2-3.9c0.8-0.9,2.1-1.2,3.2-1.4c5.4-1,11-0.9,16.4,0.3c3.1-1.1,1.9-6-0.8-7.9s-6.2-2.9-7.7-5.8
			C492,285.5,496.5,278.3,492.2,275.2z"/>
	</g>
	<g>
		<path class="st2" d="M477.4,256.6c-2.7-0.1-5.3,1-7.8,2.1c-3.8,1.7-7.6,3.3-11.4,5c-1.6,0.7-3.2,1.4-4.3,2.7
			c-1.9,2.1-2,5.7-0.1,7.9c1.8,2.2,5.3,2.7,7.8,1.2c2.6-1.7,3.6-5.1,5.8-7.3c3.2-3.2,8.2-3.3,12.7-3.1l-1.6,0.3
			c2.3,1.3,5.4-1.5,5-4.2C482.9,258.5,480.1,256.7,477.4,256.6z"/>
	</g>
	<g>
		<path class="st2" d="M544.9,281.2c-0.6-3.2-3.7-5.5-6.8-6.3l-1.6,1.3c-1.1,4.1-1.3,10.1,2.9,11.1
			C542.5,288.1,545.5,284.4,544.9,281.2z"/>
	</g>
	<g>
		<path class="st2" d="M418.8,524c-0.9,3.7,3.1,7,6.9,7.3c3.8,0.3,7.4-1.3,11.1-2c3.9-0.8,8.1-0.7,12,0.4c2.6,0.7,5.1,1.8,7.8,1.6
			c2.6-0.2,5.4-2.5,4.9-5.1l2.6-2.2C448.9,524,433.8,524,418.8,524z"/>
	</g>
	<g>
		<path class="st2" d="M487.2,507.1c-1.4-2.7-5.1-4.4-7.5-2.5c-2.4,1.9-1.7,5.7-0.4,8.5c1,2.1,2.5,4.2,4.7,4.5
			c1.7,0.2,3.3-1.5,3.3-3l0.6,1.3C488.2,513,488.5,509.8,487.2,507.1z"/>
	</g>
	<path class="st1" d="M671.9,196.1c-0.6-30.8-1.2-61.6-1.8-92.5c-0.4-22.4-0.5-44.9-1.9-67.3c-0.4-6.6-0.6-13.5-1.8-20
		c-0.5-2.5-2.2-5.9-4.2-2.3c-0.4,0.8-0.4,1.9-0.8,2.7c-0.8,1.9-2.4,3.8-3.7,5.4c-3,3.8-6.6,7.1-10.3,10.3
		c-8.8,7.4-18.8,13.6-29.2,18.8c-24.9,12.4-52.3,15.9-79.8,12.6c-25.6-3-52.3-10.9-75.2-22.8c-10.5-5.5-20.3-12.2-28-21.3
		c-0.4-0.4-0.8-0.6-1.3-0.5c-0.3,0-0.6,0.2-0.9,0.5c-9,9.9-20.1,19.1-30.9,26.7c-14.2,10-29.7,18.5-46.6,22.8
		c-34.2,8.6-70.4,1.7-101.3-14.3c-17.5-9-33.4-20.7-48-33.9c-0.9-0.8-2.7-0.3-2.6,1.1c5.3,61.5,6.3,123,5.2,184.7
		c-1,57.1,2.1,114.7,18.9,169.7c7.1,23.3,16.8,46,30.1,66.5c14.6,22.7,33.6,40.5,54.8,57.1c11.6,9.1,23.2,18.1,34.8,27.1
		c10.4,8.1,20.8,16.5,32.2,23.4c22.4,13.5,49,19.1,75,15.3c26.8-3.9,51.8-17,75.8-28.9c12.6-6.2,24.9-12.9,36.1-21.4
		c11-8.3,20.4-18.3,30-28.1c18.6-19.1,35.9-39.1,47.9-63.1c11.2-22.2,18.1-46.3,22.3-70.8C675.4,301.7,672.9,248.5,671.9,196.1z
		 M668.8,305.8c-2.9,49.8-12.7,100.9-42.2,142.3c-8.1,11.4-17.6,21.9-27.2,32c-9.6,10.1-19.2,20.4-29.9,29.3
		c-20.9,17.4-47,28.7-71.7,39.7c-25.9,11.5-53.1,18.6-81.5,12.8c-28.3-5.8-50-23.6-72.2-40.9c-22-17.2-45.7-33.5-64.5-54.2
		c-16.8-18.5-29.6-40.4-39.2-63.4c-20.5-49.4-27.9-104.4-28.9-157.6c-0.5-30.5,0.9-61,0.8-91.5c-0.1-29.6-0.9-59.2-2.7-88.8
		c-0.8-13.3-1.7-26.5-2.8-39.7c25.7,22.6,56,40.9,89.8,47.6c16.9,3.3,34.4,3.7,51.4,0.7c17.8-3.2,33.8-10.7,49-20.4
		c8.5-5.5,16.1-11.8,23.8-18.4c4.6-3.9,9.1-7.7,13.3-12.1c14.7,16.5,36.1,25.7,56.7,32.6c25,8.4,51,13.8,77.5,12.1
		c23.3-1.5,44.8-9,64.6-21.3c8.6-5.3,16.9-11.4,23.9-18.7c2.4-2.5,4.7-5.2,6.5-8.2c0.1-0.1,0.1-0.2,0.2-0.3c0.3,1.3,0.6,2.6,0.7,3.3
		c0.4,3.9,0.7,7.9,0.9,11.8c0.5,7.8,0.9,15.5,1.1,23.3c0.8,28.3,1.1,56.6,1.6,84.9C668.9,196.8,671.9,251.5,668.8,305.8z"/>
	<path class="st1" d="M398.3,171.3h81.8V89.6h-81.8V171.3z M402.3,93.6h73.8v73.8h-73.8V93.6z"/>
	<path class="st1" d="M412.4,101.1c-0.3,0.1-0.4,0.3-0.6,0.5c-0.7,0.1-1.4,0.5-1.4,1.4c0,8.3,0,16.7,0,25c0,1.9,3,1.9,3,0
		c0-3.4,0-6.8,0-10.3c0.3,0.2,0.6,0.2,1,0.2c5.4-1,13.2-3.5,13.3-10.2C427.8,99.5,418.2,98.1,412.4,101.1z M424,110.2
		c-2,3.2-6.8,4.2-10.3,4.8c-0.1,0-0.1,0-0.2,0.1c0-3.8,0-7.5,0-11.3c0.1,0,0.3-0.1,0.4-0.1c2.5-1.3,5.7-2,8.3-0.3
		C424.5,104.8,425.5,107.8,424,110.2z"/>
	<path class="st1" d="M470.1,112.6c-0.4-0.3-0.8-0.5-1.3-0.6c-0.5-0.1-1.1-0.1-1.6-0.1c0.3,0.6,0.5,1.3,0.6,2c0,0,0,0.1,0,0.1
		c0,0.4,0,0.8-0.1,1.2c0.1,0.3,0.2,0.7,0.4,1.2c0.4,1.9-0.7,3-2,4.2c-5.1,4.8-13.2,5.1-18.4,0.3c-5.6-5.2-6.2-13.9-0.1-19
		c5.6-4.7,13.5-2.8,17.8,2.6c1.2,1.5,3.3-0.6,2.1-2.1c-5.6-7-16.4-8.5-22.9-1.8c-7,7.2-5.1,18.5,2.8,24.1c7,5,17.5,3.1,22.6-3.9
		C471.6,118.3,473.2,114.7,470.1,112.6z"/>
	<path class="st1" d="M441.5,145.7c-2.8-1.6-6.8-1.5-7.9-5.2c-2.3-8,11.2-8.5,9.6,0c-0.3,1.9,2.5,2.7,2.9,0.8
		c1.5-8.3-10.4-15.1-14.7-6.4c-1.5,3.1-1.2,7.3,1.1,9.8c2,2.2,5,2.1,7.5,3.5c2.5,1.5,4.4,4.8,3.4,7.8c-1.6,5.1-8.5,4.8-9.5-0.5
		c-0.3-1.9-3.2-1.1-2.9,0.8c1.7,9.1,14.2,7.9,15.6-0.8C447.2,151.6,444.9,147.6,441.5,145.7z"/>
	<g>
		<path class="st2" d="M501.4,519.1c-1.9,1.8-3.5,3.9-5.5,5.5c-2.4,1.8-5.3,3-8.2,3.2c3,1.3,6.2,2.5,9.4,2.6
			c3.3,0.1,6.8-1.2,8.6-3.9c0.9-1.4,1.4-3.2,2.4-4.5c1.9-2.5,5.2-3.1,8.2-4.1s6.2-2.8,6.4-5.9l-3.7-0.1
			C512.5,511.9,506.1,514.6,501.4,519.1z"/>
	</g>
	<g>
		<path class="st2" d="M280.5,163.4c-0.6,2.5,0.3,5.2,1.3,7.6c1.1,2.8,2.2,5.7,3.3,8.5c2.5-5,2.1-11.3-0.9-16l2.1-3.5
			C284.1,158.8,281.2,160.9,280.5,163.4z"/>
	</g>
	<g>
		<path class="st2" d="M300.5,167.7c-1.7,1-4.2,1.9-4,3.8c0.2,1.9,2.8,2.4,4.7,2.3c3.8-0.2,7.8-0.4,10.7-2.9c2.8-2.5,3.1-8-0.3-9.4
			c-2.5-1.1-6.3-0.1-7.3-2.6l-0.3,1.1C304.5,162.9,303.1,166.2,300.5,167.7z"/>
	</g>
	<g>
		<path class="st2" d="M346.7,132.6c-2.9,1.3-5,4.1-5.7,7.2c-0.4,2,0.1,4.7,2.1,5.2c1.7,0.5,3.4-1,3.9-2.7c0.5-1.7,0.1-3.5-0.3-5.2
			L346.7,132.6z"/>
	</g>
	<g>
		<path class="st2" d="M367.4,167.2c0.7-2.4-3.1-4.8-4.4-2.7l0-0.3c-2.6-0.9-6.4,0.5-6,3.2c0.1,0.4,0.2,0.8,0.4,1.1
			c0.7,1,2.1,1.7,3.4,1.9c0.2,0,0.3,0.1,0.5,0.1C363.8,170.6,366.7,169.6,367.4,167.2z"/>
	</g>
	<g>
		<path class="st2" d="M351.1,205.3c-1.7-2.8-4.6-4.8-7.6-6.1c-3-1.3-6.5-2.1-9.5-1s-5.3,4.9-3.8,7.9c2,4,8.1,3.5,11.4,6.5
			c1.4,1.3,2.1,3.1,2.8,4.8c1.8,4.4,3.6,8.9,5.3,13.3c0.9,2.3,2.5,5.1,5,4.9c2.5-0.2,3.7-3.6,2.9-6c-0.8-2.4-2.8-4.2-4.3-6.3
			c-1.5-2.1-2.4-5-0.9-7.1l-0.9-1.6C353.2,211.9,352.8,208.2,351.1,205.3z"/>
	</g>
	<g>
		<path class="st2" d="M311.6,252.1c1.3,1.8,4.3,1.2,5.8-0.4c1.5-1.6,2-3.9,2.9-5.9c0.8-2,2.3-4.1,4.5-4.4c-0.2-1.3-1.5-2.3-2.8-2.3
			l-4.3,3.3c-1.6-1.4-4.4-0.6-5.7,1.1s-1.4,4.1-1.2,6.2C310.9,250.5,311.1,251.4,311.6,252.1z"/>
	</g>
	<g>
		<path class="st2" d="M300.3,233.6c-1.1-3.8-4.3-7-8.2-7.9l-0.9,0.3c-1.6,1.1-1.4,3.6-0.4,5.3c1.1,1.6,2.7,2.7,4,4.2
			c2.2,2.4,3.1,5.9,2.5,9.1C300.1,241.8,301.3,237.4,300.3,233.6z"/>
	</g>
	<g>
		<path class="st2" d="M279.9,256.9c1.9,0,2.5-2.6,2.5-4.5s1.3-4.5,3.1-3.8c0.7,0.3,1.2,1.1,1.5,1.8c1.6,3.5,3.3,7,4.9,10.4
			c3.3-0.1,5.1-4.5,3.9-7.6c-1.2-3.1-4.1-5.1-6.9-7c-2.8-1.8-5.7-3.9-6.8-7c-0.5-1.5-0.6-3.1-1-4.6c-1.1-4.4-4.9-7.6-8.4-10.4
			l-0.4,1c-2.1,3.9-0.3,8.7,2,12.5c2.3,3.8,5.1,7.7,4.9,12.1C279.2,252.3,278.3,255.1,279.9,256.9z"/>
	</g>
	<g>
		<path class="st2" d="M366.1,215.7l0.4,2.4c1.6-6.5,0-13.7-4.1-19c-2.7,2.2-4,6-3.2,9.5C359.8,212,362.7,214.9,366.1,215.7z"/>
	</g>
	<g>
		<path class="st2" d="M371.3,219.6l-3.2,3.2c-3.2,0.4-4.4,5.4-1.9,7.5s6.8,0.7,8.1-2.3C375.6,225.1,374,221.3,371.3,219.6z"/>
	</g>
	<g>
		<path class="st2" d="M483.9,400.6c1-2.6-0.9-5.3-2.4-7.8c-2.4-4-3.6-8.7-3.5-13.4c0-1.5,0.2-3,1-4.2c2.3-3.5,8-2.4,11.1-5.2
			c2-1.9,2.3-5.3,0.6-7.5c-1.6-2-4.7-2.5-7-1.3c-3.8,0.1-7.9-1.2-11.1,0.7c-1.2,0.7-2.2,1.8-3.1,2.9c-6.9,8.6-11.9,18.9-14.3,29.7
			c2.1-0.7,3.9,1.7,4.5,3.8c0.4,1.6,0.6,3.4,1.5,4.7h20.4C482.6,402.5,483.5,401.7,483.9,400.6z"/>
	</g>
	<g>
		<path class="st2" d="M447.7,370.4c2.5,0.4,2.5-3.5,3.2-5.8c0.9-3,4.3-4.3,6.8-6c2.6-1.7,4.6-5.7,2.2-7.7c-1.3,3-4.1,5.3-7.3,5.9
			c-0.4-4.3-1.9-8.4-4.3-12l-1.9,0.2c-0.2,7.1-0.5,14.2-0.7,21.3C445.7,368,446.1,370.1,447.7,370.4z"/>
	</g>
	<g>
		<path class="st2" d="M371.4,288.4c2.5-1.4,3.1-4.8,2.9-7.7c-0.2-2.9-1-5.9-0.2-8.6l-1.2-0.2c-7.6,4-14.3,9.7-19.5,16.5
			c4.6,0.6,9.2,0.9,13.7,0.8C368.6,289.2,370.1,289.1,371.4,288.4z"/>
	</g>
	<g>
		<path class="st2" d="M437.1,272.2c-0.1,2.2-0.3,4.4-0.4,6.6c-0.2,3.1-0.3,6.4,1.1,9.1s5.1,4.5,7.7,2.9c2.7-1.7,2.7-5.5,2-8.6
			c-0.7-3.1-1.7-6.5-0.1-9.2c-3.5-1.4-6.6-3.5-9.3-6.2l1.7,2.3C438.6,268.1,437.2,270.4,437.1,272.2z"/>
	</g>
	<g>
		<path class="st2" d="M411.2,257.3c1,3.9,3.9,7.3,7.7,9c3.3,1.4,9.4,1.5,9.3-3.5l-1.8,0C423,258.1,416.8,255.8,411.2,257.3z"/>
	</g>
	<g>
		<path class="st2" d="M501.8,247.6c0.2-0.6,0.7-1,1.4-1c0.2,0,0.3,0,0.5,0c0.1,0,0.2,0,0.3,0c1.7-1.4,3.1-3.1,3.9-5.2
			c2.9-7.8-4-17.1-0.3-24.5c1.1-2.2,2.9-3.8,4.4-5.7c7.3-9.1,5.1-24.2-4.4-31c-1.3-0.9-3-1.7-4.3-0.8c-0.8,0.6-1.1,1.7-1.4,2.6
			c-2.9,8-13.1,9.9-21.5,10.5l0.7-0.1c-5.3,0.4-10.5,1.5-15.5,3.3c-2,0.7-4.1,1.6-5.7,3.1c-3,2.8-3.7,7.1-4.1,11.2
			c-0.3,4-0.4,8-0.7,12c-0.3,4.3-0.7,8.5-1.9,12.7c-1.1,3.9-2.8,7.6-3.4,11.7c-0.6,4,0.2,8.5,3.3,11.1c2.9,2.4,7.5,2.5,10.4,0.1
			c2.2-1.8,3.4-4.6,5.6-6.4c2.1-1.8,5-2.6,7.2-4.2c2.2-1.7,3.7-5.1,1.9-7.2c-2-2.3-6-0.9-8.8-2.3c-2.6-1.3-3.5-4.5-3.5-7.4
			c0-0.7,0-1.4,0-2.1c0.1-2.2,0.1-4.4-0.7-6.4c-0.7-1.7-2-3.5-1.3-5.2c1-2.7,4.9-1.9,7.7-2.8c4.6-1.5,5.4-7.9,9.1-11.1
			c3.5-3.1,9.3-2.4,13,0.5s5.7,7.4,7,11.9c0.5,1.9,0.9,4,0,5.7c-1.3,2.5-4.7,2.8-7.5,2.6s-5.9-0.6-8.1,1.2c-2.2,1.8-1.1,6.5,1.6,5.9
			c1.6-0.3,2.4-2.1,3.8-2.9c2.5-1.5,5.6,0.6,7.7,2.6c0.5,0.5,1,1,1.2,1.7c0.4,1.9-2.4,2.7-4.3,3.1c-3,0.6-5.5,2.6-7.2,5.1
			c-0.1,0.1-0.1,0.2-0.2,0.3c-1.7,2.8-2.1,6.3-0.6,9.2c0.8,1.5,2.1,2.8,3.8,3c1.2,0.1,2.3-0.3,3.4-0.7c2.4-0.9,4.9-1.9,7.1-3.2
			C501.4,248.1,501.5,247.9,501.8,247.6C501.7,247.7,501.7,247.6,501.8,247.6z"/>
	</g>
	<g>
		<path class="st2" d="M522.6,298c-1.9-3.6-6.8-5.9-10.1-3.6c-3.7,2.5-3,8.2-1,12.2c1.9,4,4.6,8.2,3.6,12.6
			c-0.8,3.4-3.8,5.8-5.4,8.9c-1.6,3.1-0.6,8.2,2.9,8.2c3.2,0.1,4.6-4,6.7-6.4c2.8-3.2,7.4-3.8,11.5-4.8c4.9-1.1,9.6-3,13.9-5.6
			c1.8-1.1,3.7-2.4,4.4-4.4s-0.3-4.7-2.4-4.9c-1-0.1-1.9,0.3-2.8,0.8c-5.2,2.5-10.4,5-15.6,7.5c-0.9,0.4-1.8,0.9-2.8,0.7
			c-1.7-0.3-2.4-2.3-2.4-4s0.5-3.4,0.1-5.1l0.9-0.1C524.2,305.9,524.4,301.6,522.6,298z"/>
	</g>
	<g>
		<path class="st2" d="M540.4,246.8c7.9,3,17.6-2.5,20.1-10.6c0.9-2.9,0.6-6.8-2.2-8c-3.7-1.6-7,3.1-8.4,6.9l-0.9,2.1
			c-2.9-0.4-6.1-0.7-8.7,0.7c-2.6,1.4-4.2,5.2-2.2,7.4C538.6,246,539.5,246.4,540.4,246.8z"/>
	</g>
	<g>
		<path class="st2" d="M579.3,247c1.3,1.3,3.6,1,5.4,0.4c2.8-0.8,5.5-1.9,8.1-3.1c2.3-1.1,4.8-2.6,5.1-5.1c0.3-2.5-3.5-4.8-4.7-2.6
			l-1.8,2.4c-0.6-3.5-1.8-7.8-5.2-8.7c-2.9-0.8-5.9,1.4-7.1,4.1s-1.1,5.8-0.9,8.8C578.2,244.6,578.3,246,579.3,247z"/>
	</g>
	<g>
		<path class="st2" d="M611.8,243.3c0.7-2.5-0.2-5.3,0.6-7.8c0.7-2,2.3-3.6,2.7-5.7c0.4-2.1-2-4.6-3.6-3.2l-1.4,0.4
			c-1.3,5.1-2.7,10.2-4,15.3c-0.3,1-0.5,2.1-0.1,3C607.2,247.6,611.1,245.8,611.8,243.3z"/>
	</g>
	<g>
		<path class="st2" d="M602.1,311.3c-3.7-0.5-7.8,3-6.9,6.6c0.4,1.7,1.8,3,3.1,4.2c2.1,2,4.2,4,6.2,5.9c0.4,0.4,0.9,0.8,1.5,0.8
			c0.7-0.1,1.1-0.9,1.4-1.6c0.8-2.3,1-4.9,0.6-7.3l2-1.3C608.6,315.1,605.8,311.8,602.1,311.3z"/>
	</g>
	<g>
		<path class="st2" d="M584.9,324.3c-2.7,2.6-4.8,6.2-4.2,9.9c0.6,3.7,5.1,6.6,8.2,4.6c2.2-1.4,2.7-4.5,1.9-6.9s-2.5-4.4-4.3-6.3
			l0.1,0.2C586.3,325,585.7,324.5,584.9,324.3z"/>
	</g>
	<g>
		<path class="st2" d="M573.8,337.1c2.5-2,2.7-6.1,0.7-8.7l-2.8,1.7c-2.7-1.7-6.7,1.6-5.8,4.7S571.3,339.1,573.8,337.1z"/>
	</g>
	<g>
		<path class="st2" d="M559.9,347.6c-3.2,2.9-0.4,9.4,3.9,9.3c4.4-0.1,7.2-6,4.7-9.6L567,348C565.2,346,561.9,345.9,559.9,347.6z"/>
	</g>
	<g>
		<path class="st2" d="M550.7,346.9c1.5,1.3,3.8,1,5.5,0c2.9-1.9,3.8-6.7,1.2-9c-2.6-2.4-7.8-0.4-7.6,3.1l1.3,1.1
			C549.3,342.8,549.2,345.7,550.7,346.9z"/>
	</g>
	<g>
		<path class="st2" d="M568.4,135.6c0.2,0.1,0.3,0.3,0.4,0.4c0,0,0.1-0.1,0.1-0.1L568.4,135.6z"/>
	</g>
	<g>
		<path class="st2" d="M576.6,157.7c3.1-2.2,3.7-7.5,0.7-9.9c-1.1-0.9-2.5-1.4-3.6-2.3c-2.7-2.3-2.8-7-5-9.4c-2.6,2.8-4.7,6-5.5,9.7
			c-0.8,3.8,0.1,8,2.8,10.7S573.5,159.9,576.6,157.7z"/>
	</g>
	<g>
		<path class="st2" d="M568.4,135.6c-0.4-0.3-0.8-0.6-1.3-0.8L568.4,135.6z"/>
	</g>
	<g>
		<path class="st2" d="M588.8,255.9c-0.4,4.6,3.2,9,7.7,10.3c1.9,0.5,4.3,0.3,5.1-1.4c0.3-0.7,0.3-1.4,0.4-2.2
			c0.1-5.5,0.2-11,0.2-16.5l-3.4,3.2C594.5,247.5,589.3,251.3,588.8,255.9z"/>
	</g>
	<g>
		<path class="st2" d="M511.8,268.9c-2.4,0.3-4.1,2.3-5.5,4.2c-2.1,2.7-4.3,5.6-5,8.9c-0.7,3.4,0.6,7.4,3.8,8.8l2.4,1
			c-1.2-4.4,1.1-9.4,5.2-11.4c1-0.5,2.1-0.8,3-1.5c0.7-0.6,1.1-1.5,1.4-2.3C518.1,273.1,515.4,268.6,511.8,268.9z"/>
	</g>
	<g>
		<path class="st2" d="M525.9,243.7c0.4-2.2,2.5-3.7,4.4-4.9c1.9-1.2,4-2.6,4.6-4.8c0.6-2.2-1.5-5-3.6-4.1l1.3-0.5
			c-1.5-1.2-3.8-0.9-5.4,0.3c-1.5,1.2-2.4,3-3,4.9c-1.4,4.2-1.7,8.7-0.9,13.1C525.1,248.4,525.5,245.5,525.9,243.7z"/>
	</g>
	<g>
		<path class="st2" d="M546.9,232.8c0.7-0.2,1.2-0.8,1.6-1.5c2.9-4.4,2.8-10.1,2.6-15.3c0-0.9-0.1-2-0.8-2.6c-0.7-0.6-2.2-0.2-2,0.8
			L546,215c-2.6,4.1-3.7,9.2-2.9,14C543.5,231,545,233.5,546.9,232.8z"/>
	</g>
	<g>
		<path class="st2" d="M528.4,211.4c3.7,0.6,7.2-3.6,5.9-7.1l2.5-2.8c-4-1.2-9-2-11.7,1.2C522.8,205.6,524.7,210.7,528.4,211.4z"/>
	</g>
	<g>
		<path class="st2" d="M447.6,317.4l-0.7-3.4c-1.3-2.1-3-4.4-5.5-4.4c-3.2,0-4.8,4.8-2.6,7.2C440.9,319.3,444.9,319.2,447.6,317.4z"
			/>
	</g>
	<g>
		<path class="st2" d="M404.8,253.6l-2.8,0.3c-3.3,0.3-6.5,1.4-9.2,3.3c-0.5,0.3-1,0.8-1.2,1.3c-0.5,1.5,1.3,2.6,2.7,3.2
			c2.6,1,5.3,2,8.1,1.9c2.8-0.1,5.7-1.7,6.5-4.3C409.8,256.6,407.6,253.2,404.8,253.6z"/>
	</g>
	<g>
		<path class="st2" d="M520.2,144.2c2.6-0.2,5.4-1.5,6.6-3.9c1.2-2.4,0.4-5.8-2-6.8c-2.5-1-5.7,1.6-4.8,4.1l0,0.5
			c-3.3-0.9-7.2,1.6-7.6,5.1C514.9,143.8,517.6,144.4,520.2,144.2z"/>
	</g>
	<g>
		<path class="st2" d="M459,347.6c6.2,1.6,13.1,0.7,18.7-2.4l-3.8-2.9C468.5,340.4,462,342.8,459,347.6z"/>
	</g>
	<path class="st2" d="M325.2,195.7c-2.2-1.7-5-3.4-7.9-2.5c-2.4,0.8-4,3-3.5,5.6c0.4,1.7,2.9,1.2,2.9-0.4c0.3,0.1,0.6,0.1,0.9,0
		c2.2-0.8,4.2-0.7,6.4,0.1C325.8,199.1,326.5,196.6,325.2,195.7z"/>
	<path class="st2" d="M317,234.3c2.7-1.1,4.8-2.8,6.2-5.4c0.6-1.2-0.4-2.5-1.7-2.2c-4.1,1-8,2.6-11.6,4.9c-1.6,1-0.1,3.6,1.5,2.6
		c1.3-0.9,2.7-1.6,4.1-2.3C314.8,233.1,315.5,234.9,317,234.3z"/>
	<g>
		<path class="st2" d="M430.2,197c-3.2-7.6-13.3-9.2-21.5-8.4c-2.9,0.3-6,0.8-8.3,2.5c-0.2,0.2-0.4,0.3-0.6,0.5
			c-0.8,0.7-1.6,1.5-2.5,2.1c-4.6,3-10.8-0.1-14.5-4.2c-3.7-4.1-6.4-9.3-11.4-11.7c-4.9-2.4-10.8-1.5-16.2-0.4c-8,1.5-16,3-23.7,5.6
			c-0.1,0.1-0.2,0.2-0.3,0.3c-0.6,0.4-0.8,1.2-1.5,1.6c-0.4,0.3-0.9,0.3-1.4,0.3c-1,0.1-2,0.5-3,0.7c-0.1,0.1-0.1,0.1-0.2,0.2
			c0,0,0.1,0.1,0.1,0.1c0.4,0.3,0.9,0.4,1.4,0.5c8.7,1.3,17.6,1.5,26.4,0.7c4-0.4,8.2-0.9,11.7,1.2c1.9,1.1,3.3,2.9,4.8,4.5
			c3.8,4.1,8.6,7.3,13.3,10.4c1.7,1.1,3.6,2.3,5.6,1.9c2.1-0.4,3.5-2.2,5.2-3.4c6.4-4.5,14.9,0.6,21,5.5c4.2,3.4,8.9,8.4,6.7,13.4
			c-3.1,7.4-17.7,5.4-18.5,13.3c-0.5,4.5,4.3,7.5,8.3,9.4c3.3,1.5,6.7,3.1,10.3,3.3s7.6-1.2,9.4-4.3c1.2-2.1,1.3-4.7,1.3-7.2
			c0.1-8.7-0.1-17.5-0.5-26.2c-0.1-1.7-0.2-3.3-0.3-5C431.3,201.7,431.1,199.3,430.2,197z"/>
	</g>
	<path class="st1" d="M553.4,276.7c-1.5-0.4-2.8-1.2-4.2-2.1c-0.4-0.6-0.8-1.2-1.2-1.8c0-0.1-0.1-0.1-0.1-0.2
		c-0.5-0.8-1-1.6-1.7-2.1c-0.4-0.3-0.9-0.6-1.3-0.9c-0.3-0.3-0.7-0.5-1.2-0.6c-1-0.5-2-1-3-1.9c-0.1-0.2-0.3-0.3-0.5-0.5
		c0,0-0.1-0.1-0.1-0.1c-0.1-0.1-0.2-0.2-0.4-0.3c-1.2-0.9-2.7-1.5-3.8-1.2c-2.1-1.9-3.6-4.1-5.4-6.5c-1.7-2.4-3.9-2.6-6.2-1.9
		c-0.4-0.3-0.9-0.4-1.4-0.3c-3.2-2.2-6.4-4.4-9.7-6.4c-2.6-1.6-5.6-2.9-8.4-2.2c-0.1-0.6-0.6-1.1-1.2-1.2c-0.1,0-0.2,0-0.3,0
		c-0.2,0-0.3,0-0.5,0c-0.7,0-1.1,0.4-1.4,1c0,0,0,0-0.1,0.1c-0.2,0.2-0.3,0.5-0.4,0.7c-0.1,0.5,0,1,0.4,1.4c0.1,0.1,0.3,0.3,0.5,0.3
		c0,0.5,0.2,1,0.7,1.2c0.7,0.4,1.3,0.6,1.9,0.7c-0.2,1,0.8,1.9,1.9,1.7c0.7-0.1,1.4-0.2,2-0.3c0.2,0.7,0.4,1.4,1,1.8
		c0.3,0.2,0.6,0.2,0.9,0.2c0,0.2,0,0.3,0,0.5c0.1,1.2,1.2,1.8,2.3,1.3c0.6-0.3,1.2-0.7,1.9-1c1.1,2.8,4.2,4.4,7.1,3.8c0,0,0,0,0,0
		c0,0,0,0,0,0c0.6,1,1.3,1.9,2.1,2.6c0.5,0.8,1.2,1.5,2.1,2.3c0.7,0.6,1.6,0.4,2.1-0.1c0.6,0.1,1.1,0.2,1.7,0.2
		c1.5,1.9,3.2,3.2,5.5,4.2c0.4,0.2,0.9,0.2,1.3,0c0.4,0.2,0.8,0.5,1.3,0.7c0.9,0.5,1.7,1,2.6,1.5c0.8,0.5,1.6,0.9,2.5,1.4
		c-0.3,0.7-0.1,1.5,0.6,1.8c2.4,1.1,4.1,3,6.4,4.2c0.1,0.1,0.3,0.1,0.4,0.2c1.9,0.8,3.8,0.5,5.8,1.6c0,0.1,0.1,0.1,0.1,0.2
		c0.2,0.4,0.5,0.6,0.8,0.7c0.2,0,0.3,0.1,0.5,0.1c1.4,0.6,3.1-1.2,1.7-2.4c-0.3-0.3-0.6-0.5-1-0.8c-0.2-0.2-0.4-0.3-0.7-0.3
		c0,0-0.1,0-0.1,0c0,0,0,0,0,0C556.3,277.4,555.1,277.1,553.4,276.7z M513.7,253.5C513.7,253.5,513.7,253.5,513.7,253.5
		C513.7,253.5,513.7,253.5,513.7,253.5C513.7,253.5,513.7,253.5,513.7,253.5z"/>
	<path class="st1" d="M487.3,237.7c-1-0.5-1.9-1-2.9-1.4c0.7-2.3,0.1-4.5-1-6.7c-0.9-1.9-4.9-7.9-1-9.1c1.9-0.5,1.1-3.4-0.8-2.9
		c-8.3,2.4-0.6,11.6-0.1,16.8c-0.2-0.1-0.3-0.1-0.5-0.2c-0.9-5.1-5.8-8.5-11-7.5c-1.2,0.2-1.3,1.7-0.7,2.5c0.3,0.3,0.5,0.6,0.8,0.9
		c2.3,2.6,5,4.6,8.1,6.1c0.2,1,1.3,1.3,2.1,0.9c0.3,0.1,0.5,0.2,0.8,0.3c0.1,0.3,0.3,0.7,0.7,0.9c1.3,0.6,2.6,1.3,3.9,1.9
		c0.7,0.3,1.3,0.1,1.7-0.3c0.1-0.1,0.2-0.2,0.2-0.3C488.2,239.1,488.2,238.2,487.3,237.7z M474.2,230c1.1,0.4,2,1.2,2.7,2.1
		C476,231.4,475.1,230.7,474.2,230z"/>
	<path class="st1" d="M551.6,281.1C551.6,281.1,551.6,281.1,551.6,281.1c-1.6,0.1-1.9,2-0.9,2.8c0.2,0.2,0.5,0.3,0.9,0.2
		c1,0,1.8,0.4,2.4,1c0.3,0.3,0.5,0.6,0.8,0.9c0.5,0.6,1.6,0.5,2.1,0c0.6-0.6,0.5-1.5,0-2.1c-0.1-0.1-0.2-0.3-0.3-0.4
		C555.4,282,553.7,281.1,551.6,281.1z"/>
	<path class="st1" d="M328.4,185.2c0.5,0,1,0,1.4-0.3c0.7-0.4,0.9-1.2,1.5-1.6c0.1-0.1,0.2-0.2,0.3-0.3c0.2-0.3,0.4-0.6,0.3-1
		c0.7-0.2,1.4-0.5,2-0.8c1.7-0.8,0.2-3.4-1.5-2.6c-1.4,0.7-2.7,0.8-4.2,0.9c-1,0.1-1.8,0.4-2.5,1c-1.1,1-2.4,1.9-2.8,3.3
		c-0.2,0.4-0.3,0.7-0.2,1.1c0,0,0,0,0,0c0,0,0,0,0,0c0,0.1,0,0.3,0,0.4c0.2,1.3,1.6,1.3,2.4,0.6c0.1-0.1,0.1-0.1,0.2-0.2
		C326.3,185.7,327.3,185.2,328.4,185.2z"/>
	<path class="st1" d="M661.5,71.6c-0.2-11.5-0.4-23.1-0.6-34.6c0-1.4-1.6-1.9-2.6-1.1c-23.8,20.7-54,33.6-85.3,37.3
		c-15.2,1.8-30.6,1.4-45.7-1.3c-16.3-2.9-32.2-8.7-47.5-14.8c-9.4-3.7-18.4-8.2-27-13.4C447,40,441.4,36,435.2,32.8
		c-0.5-0.3-1.4-0.3-1.8,0.2c-18.5,22.3-43.9,38.1-72,45.3c-30.4,7.8-61,3.8-89.9-7.6c-18.1-7.2-35.2-16.6-52.3-26
		c-0.7-0.4-2.1-0.1-2.2,0.9c-0.3,1.9,0,3.8,0.1,5.7c-0.6,45.5-1.2,91.1-1.7,136.6c-0.4,40.3-0.1,80.7,5.3,120.6
		c5.2,38.7,15.5,77.1,34.7,111.4c18.4,32.9,44.6,60.9,74.2,84.1c14.5,11.4,29.9,21.7,45.7,31.1c16.7,9.9,34.2,20.9,54,23.1
		c21.1,2.4,42.2-3.8,61.8-11.2c9.1-3.5,18.1-7.2,26.9-11.2c4.7-2.1,9.3-4.4,13.6-7.1c4.3-2.7,7.9-6.2,12.1-9
		c14.6-9.8,28.7-19.3,41.6-31.4c12.9-12.1,24.4-25.6,34.4-40.2c20.6-30,34.4-64.3,40-100.2c7-45,5.1-91.5,4.3-137
		C663.3,164.6,662.4,118.1,661.5,71.6z M660.6,307.2c-1.9,39.4-9.2,77.5-27.4,112.7C617,451.4,594,479.3,566.1,501
		c-7,5.4-14.3,10.4-21.8,15c-3.8,2.3-6.9,5.3-10.5,7.8c-4.2,2.9-8.7,5.4-13.3,7.6c-18.7,9-38.9,17.3-59.3,21.7
		c-11.1,2.4-22.7,3.5-34,1.8c-10.9-1.6-20.7-6.1-30.3-11.2c-16.2-8.7-32-18.2-47.1-28.7c-30.5-21.2-58.5-46.7-79.6-77.4
		c-22.1-32-35.4-68.9-42.7-107c-7.4-39-8.9-79-9-118.6c-0.1-43.1,0.9-86.1,1.4-129.2c0.1-9.1,0.2-18.2,0.3-27.4
		c0.1-0.7,0.1-1.4,0-2.2c0-1.4,0-2.8,0.1-4.2c0-0.2,0-0.4-0.1-0.6c29.1,16,59.4,32.2,92.9,36.1c29.2,3.4,59.3-3.3,84.7-17.8
		c14.1-8,26.7-18.5,37.1-30.9c5.3,2.9,10.2,6.3,15.3,9.5c7.5,4.7,15.3,8.7,23.4,12.2c15.9,6.8,32.8,13.1,49.9,16.5
		c30.8,6.1,63.4,2.8,92.4-9c15.2-6.2,29.4-14.6,42-25.1c0.8,44.1,1.6,88.3,2.4,132.4C661.2,217.4,662.8,262.3,660.6,307.2z"/>
	<path class="st1" d="M365.5,403.5v38.2h58.6h2.2v-15.6c1.5,0.6,2.8-1.8,1.3-2.7c-0.4-0.3-0.8-0.5-1.3-0.7v-1.4
		c4,3.2,10.3,5.6,15.3,4.2c2.2,1.6,4.2,3.1,5.8,4.4c4.3,3.2,8.3,6.1,13.8,6.3c1.4,0,1.8-1.6,1.1-2.6c-1.5-1.8-2.9-3.7-4.2-5.6
		c-1.1-1.6-3.7-0.1-2.6,1.5c0.7,1,1.4,2,2.1,3c-4.8-1.5-9-5.4-13.2-8.4c0.8-0.6,1.5-1.3,2.1-2.1c1.7-2.5,1.4-5.7-1-7.6
		c-1.3-1.1-3.1-1.4-4.7-1.6c-1.2-0.1-2.1,0.2-3.3-0.5c-0.9-0.5-1-1.3-1.8-1.9c-1.4-1.1-3.2-2.2-4.6-3.1c-1.1-0.6-1-0.9-2.4-0.8
		c-0.7,0.1-1.6,0.3-2.4,0.7v-3.4v-0.2H365.5z M423.3,434.2C423.3,434.2,423.3,434.2,423.3,434.2c-0.2,0-0.4,0-0.6,0.1
		c0.2-1.8-2.3-2.5-2.9-0.7c0,0.1-9.5,1-16.3,1.6c-5.4,0-10.7,0-16,0.4c-4.6-0.2-9.1-0.4-13.7,0.6c-1.3,0.3-1.3,1.8-0.6,2.5h-1.7
		c0.4-0.5,0.4-1.2,0.1-1.7c-0.4-0.8-1.3-0.9-2.1-0.5c0.2-0.1-0.3,0-0.3,0.1c-0.1,0-0.2,0-0.3,0c0.1,0,0.1,0-0.1,0
		c-0.1,0-0.3,0-0.4,0v-22.6c1.1,1.2,3.3-0.2,2.4-1.8c0.2-0.6,0.4-1.3,0.6-1.9c0,0,0,0,0,0c0.9,0.2,1.7,0.2,2.4,0c2,0,4.1,0,6.1,0
		c1.1,0,1.7-1.2,1.4-2.1c5.4,0,10.7,0.3,16.3,0.9c2.8,0.3,5.6,0.3,8.4,0.2c0.5,1,1.5,1.5,2.5,1.3c1.3,2.3,2.8,4.7,4.6,6.5
		c2.2,3.8,6.2,5.5,10,7.4V434.2z M423.3,421.2c-1.1-0.5-2.3-1.1-3.3-1.7c0.8-0.2,1.4-1,1.2-1.8c0.7,0,1.3-0.1,2-0.1
		c0.1,0,0.1,0.1,0.2,0.1V421.2z M423.3,408.9c-1.2,0.9-2.2,2-2.5,3.1c-0.3,1-0.2,1.9,0,2.7c-0.9,0-1.9,0.1-2.8,0.2
		c-0.3-0.7-1.2-1.2-2.1-0.8c-0.3,0-0.5,0.1-0.8,0.1c-0.6-0.5-1.2-1.1-1.8-2c-0.7-1-1.4-2.1-2-3.2c3-0.3,6-0.6,9-0.8
		c1-0.1,1.5-0.9,1.4-1.6h1.7V408.9z M434.4,422.3c-2-0.5-3.8-1.4-5.4-2.6c0.8,0.2,1.6,0.3,2.4,0.4c1.9,0.6,3.8,1.5,5.7,2.6
		C436.2,422.6,435.3,422.5,434.4,422.3z M426.4,410.8c1.9-1.3,2.1-0.6,3.6,0.1c1.5,0.8,3,1.3,4.2,2.4c0.9,0.9,1,1.6,2.4,2.1
		c1.6,0.6,3.6-0.3,5.2,0.4c6.1,2.6,2.2,5.1-0.5,6.1c-0.9-0.5-1.8-1.1-2.7-1.6c1.2-0.1,2.2-0.2,2.9-0.3c1.5-0.3,1.4-2.5,0-2.9
		c-5-1.4-10.1-2.3-15.2-2.5v-3.8C426.3,410.8,426.3,410.8,426.4,410.8z"/>
	<path class="st1" d="M413,450c-1.3,0-2.5-0.1-3.8-0.1c-0.2,0-0.4,0-0.5,0.1c-2-0.2-4.7-0.5-5.8,1.1c-0.6,0.8-0.3,2.3-0.3,3.2
		c0,2.3,0.1,4.7,0.2,7c0,0.6,0,1.1,0,1.7c0,1.8,2.8,1.9,3,0.2c0.8,0.1,1.7-0.4,1.7-1.4c0-1.6-0.5-4.2,0.1-5.6
		c0.5-1.5,2.7-2.2,4.1-2.7c0.6-0.2,1.2-0.4,1.8-0.5c1.2,0,2.4,0.1,3.6,0.1c0.3,0,0.5-0.1,0.7-0.2c0.2,0.1,0.3,0.1,0.5,0.1
		c3.1,0,6.1,0,9.2,0c1.9,0,1.9-2.9,0-3c-0.7,0-1.4,0-2.1-0.1c-3.3-0.1-6.6-0.3-10-0.3C414.5,449.7,413.7,449.8,413,450z
		 M405.3,453.7c0-0.3,0.1-0.4,0.6-0.7C405.7,453.2,405.5,453.5,405.3,453.7z"/>
	<path class="st1" d="M492.9,464.9c0.1-0.5,0-0.9-0.3-1.2c-0.2-3-0.4-5.9-0.7-8.9c-0.2-2,0.2-5.6-1.2-7.3c-1.2-1.5-3.7-1.2-5.4-1.2
		c-3.7-0.1-7.3-0.2-11-0.3c-0.2,0-0.4,0-0.6,0.1c-0.5,0.2-0.8,0.6-0.9,1.2c-1.3,0.4-1.2,2.6,0.1,2.8c0.7,0.1,1.4,0.3,2,0.8
		c0.9,0.5,1.7,0.1,2-0.6c3.5,0.8,6.7,3.5,10.1,4.4c0.2,0,0.4,0.1,0.6,0c0.1,0.4,0.2,0.9,0.3,1.3c0.2,0.6,0.6,1,1.1,1
		c0.1,1.7,0.2,3.3,0.2,5c-0.5,0.2-0.9,0.6-0.8,1.3c0,0.5,0.1,1.1,0.2,1.6c-0.1,0.1-0.2,0.2-0.3,0.3c-0.6,0.6-0.6,1.5,0,2.1
		c0.2,0.2,0.4,0.3,0.7,0.4c0.3,2.2,0.7,4.5,1.1,6.7c0.4,1.9,3.3,1.1,2.9-0.8c-0.5-2.3-0.8-4.6-1.1-6.9c0.2-0.1,0.3-0.4,0.4-0.6
		c0-0.1,0.1-0.1,0.1-0.2C492.8,465.5,492.9,465.2,492.9,464.9z M482.3,449.2c0.3,0,0.6,0,0.9,0c0,0.1,0,0.3,0,0.4
		C482.9,449.5,482.6,449.3,482.3,449.2z"/>
	<path class="st1" d="M532,403h-34.2h-16.2h-20.4h-2.7l10,37l2.2,0l61.3-0.3V403z M522.3,419.2c-0.1,0.3-0.2,0.9-0.3,1.7
		c-0.9-0.3-2,0.2-1.9,1.4c0.1,0.7,0.1,1.5,0.1,2.3c-0.4,0.2-0.8,0.6-1.1,1.2c-0.6,1.1-0.4,2.1,0.2,3.1c-0.2,0.4-0.4,0.8-0.6,1.3
		c0,0,0,0.1,0,0.1c-0.3,0-0.5,0.1-0.8,0.1c-0.5,0-1,0.1-1.6,0.3c-1.4,0.4-1.3,2-0.4,2.7c-0.1,0.1-0.3,0.1-0.4,0.1
		c-2.9-0.5-5.6-0.4-8.6,0.4c-1,0.3-1.3,1.3-0.9,2.1l-34.4,0.2l-7.8-29h51.8c-0.5,1,0.3,2.6,1.7,2.2c1.7-0.4,3.5-0.8,5.2-1.2
		c0.3,0.7,1.1,1.1,1.8,0.9c0.2,0.1,0.3,0.2,0.5,0.3C523.9,412.7,523,415.9,522.3,419.2z M528,435.8l-0.1,0c0.1-0.1,0.1-0.1,0.1-0.2
		V435.8z M528,407.3c-0.1-0.1-0.2-0.2-0.3-0.3h0.3V407.3z"/>
	<circle class="st2" cx="384" cy="422.6" r="7.2"/>
	<circle class="st2" cx="510.3" cy="420.5" r="7.2"/>
</g>
</svg>
